<svg xmlns="http://www.w3.org/2000/svg" width="17" height="17" viewBox="0 0 17 17" fill="none">
  <mask id="path-1-inside-1_212_1413" fill="white">
    <path d="M10.3414 7.92435C10.261 7.92435 10.1863 7.90225 10.12 7.8667V7.86764C10.12 7.99412 10.0708 8.1129 9.98165 8.20186C9.89245 8.29106 9.77376 8.34022 9.64742 8.34022C9.56586 8.34022 9.49027 8.31757 9.42324 8.28107C9.41648 8.39678 9.37023 8.50493 9.28772 8.58753C9.19852 8.67673 9.07983 8.72589 8.95341 8.72589C8.70225 8.72589 8.49828 8.52846 8.48358 8.281C8.40587 8.323 8.31801 8.34502 8.22739 8.3392C7.98031 8.323 7.78682 8.10952 7.78682 7.85309V5.72748L7.54478 6.1468C7.45259 6.30718 7.28003 6.40676 7.09423 6.40676C7.00369 6.40676 6.91426 6.38301 6.83505 6.33762C6.73641 6.28044 6.66586 6.18864 6.63651 6.07883C6.60702 5.96894 6.62228 5.85402 6.6793 5.75553C6.67938 5.75553 7.47123 4.38428 7.51954 4.30005C7.52528 4.28738 7.54164 4.25065 7.55557 4.21934C7.56886 4.18945 7.58027 4.15878 7.5912 4.12794C7.83 3.45377 8.42129 3.03499 9.1344 3.03499C10.0604 3.03499 10.8138 3.85193 10.8138 4.8561L10.8139 7.4517C10.8139 7.57802 10.7648 7.69672 10.6757 7.786C10.5865 7.8752 10.4678 7.92436 10.3413 7.92436L10.3414 7.92435ZM9.13441 3.28611C8.52165 3.28611 8.03326 3.63221 7.82789 4.21192C7.81476 4.24874 7.80107 4.28555 7.7851 4.32142C7.73877 4.42532 7.73877 4.42532 7.72571 4.44027L7.72398 4.43877C7.65933 4.56077 7.46724 4.89342 6.89674 5.88121C6.8733 5.92172 6.86708 5.96876 6.87904 6.01375C6.89115 6.05874 6.92018 6.09666 6.96037 6.11986C7.08512 6.19152 7.25597 6.14527 7.32708 6.02138L7.80367 5.19625C7.83214 5.14709 7.88972 5.12294 7.94494 5.13788C7.99984 5.15259 8.03799 5.20238 8.03799 5.25917V7.85316C8.03799 7.97555 8.13033 8.08118 8.24385 8.08866C8.30929 8.09212 8.37033 8.07017 8.41619 8.02439C8.45788 7.9827 8.48084 7.92717 8.48084 7.86778V6.17128C8.48084 6.10191 8.53708 6.04566 8.60646 6.04566C8.67584 6.04566 8.73208 6.10183 8.73208 6.17128L8.732 8.2534C8.732 8.37548 8.83134 8.47482 8.95342 8.47482C9.01273 8.47482 9.06842 8.45185 9.11019 8.41016C9.15188 8.3684 9.17484 8.31271 9.17484 8.2534V6.17128C9.17484 6.1019 9.23101 6.04566 9.30046 6.04566C9.36984 6.04566 9.42608 6.10183 9.42608 6.17128L9.426 7.84827V7.86778C9.426 7.98978 9.52535 8.08912 9.6475 8.08912C9.70673 8.08912 9.76226 8.06607 9.80427 8.02422C9.84596 7.98261 9.86892 7.92708 9.86892 7.86769V6.17119C9.86892 6.10182 9.92509 6.04558 9.99454 6.04558C10.0639 6.04558 10.1202 6.10174 10.1202 6.17119L10.12 7.45175C10.12 7.57391 10.2193 7.67326 10.3413 7.67326C10.4007 7.67326 10.4563 7.65021 10.498 7.6086C10.5398 7.56675 10.5627 7.51106 10.5627 7.45175L10.5628 4.85616C10.5628 3.99053 9.92202 3.28613 9.1344 3.28613L9.13441 3.28611Z"/>
  </mask>
  <path d="M10.3414 7.92435C10.261 7.92435 10.1863 7.90225 10.12 7.8667V7.86764C10.12 7.99412 10.0708 8.1129 9.98165 8.20186C9.89245 8.29106 9.77376 8.34022 9.64742 8.34022C9.56586 8.34022 9.49027 8.31757 9.42324 8.28107C9.41648 8.39678 9.37023 8.50493 9.28772 8.58753C9.19852 8.67673 9.07983 8.72589 8.95341 8.72589C8.70225 8.72589 8.49828 8.52846 8.48358 8.281C8.40587 8.323 8.31801 8.34502 8.22739 8.3392C7.98031 8.323 7.78682 8.10952 7.78682 7.85309V5.72748L7.54478 6.1468C7.45259 6.30718 7.28003 6.40676 7.09423 6.40676C7.00369 6.40676 6.91426 6.38301 6.83505 6.33762C6.73641 6.28044 6.66586 6.18864 6.63651 6.07883C6.60702 5.96894 6.62228 5.85402 6.6793 5.75553C6.67938 5.75553 7.47123 4.38428 7.51954 4.30005C7.52528 4.28738 7.54164 4.25065 7.55557 4.21934C7.56886 4.18945 7.58027 4.15878 7.5912 4.12794C7.83 3.45377 8.42129 3.03499 9.1344 3.03499C10.0604 3.03499 10.8138 3.85193 10.8138 4.8561L10.8139 7.4517C10.8139 7.57802 10.7648 7.69672 10.6757 7.786C10.5865 7.8752 10.4678 7.92436 10.3413 7.92436L10.3414 7.92435ZM9.13441 3.28611C8.52165 3.28611 8.03326 3.63221 7.82789 4.21192C7.81476 4.24874 7.80107 4.28555 7.7851 4.32142C7.73877 4.42532 7.73877 4.42532 7.72571 4.44027L7.72398 4.43877C7.65933 4.56077 7.46724 4.89342 6.89674 5.88121C6.8733 5.92172 6.86708 5.96876 6.87904 6.01375C6.89115 6.05874 6.92018 6.09666 6.96037 6.11986C7.08512 6.19152 7.25597 6.14527 7.32708 6.02138L7.80367 5.19625C7.83214 5.14709 7.88972 5.12294 7.94494 5.13788C7.99984 5.15259 8.03799 5.20238 8.03799 5.25917V7.85316C8.03799 7.97555 8.13033 8.08118 8.24385 8.08866C8.30929 8.09212 8.37033 8.07017 8.41619 8.02439C8.45788 7.9827 8.48084 7.92717 8.48084 7.86778V6.17128C8.48084 6.10191 8.53708 6.04566 8.60646 6.04566C8.67584 6.04566 8.73208 6.10183 8.73208 6.17128L8.732 8.2534C8.732 8.37548 8.83134 8.47482 8.95342 8.47482C9.01273 8.47482 9.06842 8.45185 9.11019 8.41016C9.15188 8.3684 9.17484 8.31271 9.17484 8.2534V6.17128C9.17484 6.1019 9.23101 6.04566 9.30046 6.04566C9.36984 6.04566 9.42608 6.10183 9.42608 6.17128L9.426 7.84827V7.86778C9.426 7.98978 9.52535 8.08912 9.6475 8.08912C9.70673 8.08912 9.76226 8.06607 9.80427 8.02422C9.84596 7.98261 9.86892 7.92708 9.86892 7.86769V6.17119C9.86892 6.10182 9.92509 6.04558 9.99454 6.04558C10.0639 6.04558 10.1202 6.10174 10.1202 6.17119L10.12 7.45175C10.12 7.57391 10.2193 7.67326 10.3413 7.67326C10.4007 7.67326 10.4563 7.65021 10.498 7.6086C10.5398 7.56675 10.5627 7.51106 10.5627 7.45175L10.5628 4.85616C10.5628 3.99053 9.92202 3.28613 9.1344 3.28613L9.13441 3.28611Z" fill="#4CAF4F"/>
  <path d="M10.3414 7.92435V7.4792H11.9141L10.5747 8.30347L10.3414 7.92435ZM10.12 7.8667H9.67485V7.12289L10.3304 7.47438L10.12 7.8667ZM9.98165 8.20186L9.66688 7.88709L9.66729 7.88668L9.98165 8.20186ZM9.42324 8.28107L8.97885 8.25509L9.01981 7.55449L9.63614 7.89013L9.42324 8.28107ZM9.28772 8.58753L9.60265 8.90214L9.60249 8.9023L9.28772 8.58753ZM8.48358 8.281L8.27193 7.88938L8.88653 7.5572L8.92796 8.2546L8.48358 8.281ZM8.22739 8.3392L8.19885 8.78344L8.19826 8.7834L8.22739 8.3392ZM7.78682 5.72748L7.40128 5.50494L8.23198 4.0658V5.72748H7.78682ZM7.54478 6.1468L7.15884 5.92496L7.15924 5.92426L7.54478 6.1468ZM6.83505 6.33762L6.61373 6.72387L6.61178 6.72274L6.83505 6.33762ZM6.63651 6.07883L7.06645 5.96342L7.06658 5.96392L6.63651 6.07883ZM6.6793 5.75553L6.29407 5.53247L6.42267 5.31038H6.6793V5.75553ZM7.51954 4.30005L7.92497 4.48387L7.91623 4.50315L7.9057 4.52151L7.51954 4.30005ZM7.55557 4.21934L7.14882 4.03846L7.14882 4.03845L7.55557 4.21934ZM7.5912 4.12794L8.01081 4.27657L8.01077 4.27669L7.5912 4.12794ZM10.8138 4.8561L10.3687 4.85611V4.8561H10.8138ZM10.8139 7.4517L11.2591 7.45168V7.4517H10.8139ZM10.6757 7.786L10.9908 8.10048L10.9905 8.10077L10.6757 7.786ZM10.3413 7.92436V8.36952H8.76858L10.108 7.54524L10.3413 7.92436ZM9.13441 3.28611V2.84095H9.72456L9.56244 3.4084L9.13441 3.28611ZM7.82789 4.21192L8.24749 4.36058L8.24715 4.36153L7.82789 4.21192ZM7.7851 4.32142L8.19178 4.50246L8.19167 4.5027L7.7851 4.32142ZM7.72571 4.44027L8.06094 4.73316L7.76972 5.06646L7.43475 4.77717L7.72571 4.44027ZM7.72398 4.43877L7.33065 4.23032L7.59221 3.73678L8.01495 4.10187L7.72398 4.43877ZM6.89674 5.88121L7.28222 6.10385L7.28203 6.10417L6.89674 5.88121ZM6.87904 6.01375L6.44919 6.12948L6.44882 6.12809L6.87904 6.01375ZM6.96037 6.11986L6.73865 6.50587L6.73781 6.50539L6.96037 6.11986ZM7.32708 6.02138L6.94099 5.79979L6.9416 5.79873L7.32708 6.02138ZM7.80367 5.19625L7.41819 4.9736L7.41846 4.97313L7.80367 5.19625ZM7.94494 5.13788L7.82974 5.56788L7.82864 5.56758L7.94494 5.13788ZM8.24385 8.08866L8.22033 8.53323L8.21461 8.53285L8.24385 8.08866ZM8.41619 8.02439L8.73096 8.33916L8.73068 8.33944L8.41619 8.02439ZM8.73208 6.17128H9.17723V6.1713L8.73208 6.17128ZM8.732 8.2534H8.28684V8.25338L8.732 8.2534ZM9.11019 8.41016L9.42526 8.72464L9.42466 8.72524L9.11019 8.41016ZM9.42608 6.17128H9.87123V6.1713L9.42608 6.17128ZM9.426 7.84827H8.98084V7.84825L9.426 7.84827ZM9.80427 8.02422L10.1187 8.33929L10.1185 8.33959L9.80427 8.02422ZM10.1202 6.17119H10.5653V6.17125L10.1202 6.17119ZM10.12 7.45175H9.67485L9.67485 7.4517L10.12 7.45175ZM10.498 7.6086L10.8127 7.92337L10.8124 7.92367L10.498 7.6086ZM10.5627 7.45175H10.1175V7.45174L10.5627 7.45175ZM10.5628 4.85616H11.0079V4.85617L10.5628 4.85616ZM9.1344 3.28613V3.73129H8.54425L8.70637 3.16384L9.1344 3.28613ZM10.3414 8.36951C10.1774 8.36951 10.0311 8.32413 9.90965 8.25901L10.3304 7.47438C10.3361 7.47746 10.3398 7.47864 10.3412 7.47903C10.3425 7.47937 10.3423 7.4792 10.3414 7.4792V8.36951ZM10.5652 7.8667V7.86764H9.67485V7.8667H10.5652ZM10.5652 7.86764C10.5652 8.11182 10.4693 8.34417 10.296 8.51705L9.66729 7.88668C9.67047 7.8835 9.67205 7.88078 9.67297 7.87856C9.67389 7.87633 9.67485 7.8729 9.67485 7.86764H10.5652ZM10.2964 8.51664C10.1237 8.68939 9.89172 8.78538 9.64742 8.78538V7.89507C9.65253 7.89507 9.65589 7.89414 9.65817 7.8932C9.66045 7.89225 9.6634 7.89057 9.66688 7.88709L10.2964 8.51664ZM9.64742 8.78538C9.48137 8.78538 9.3332 8.73892 9.21035 8.67202L9.63614 7.89013C9.64194 7.89328 9.64561 7.89449 9.64707 7.89488C9.64832 7.89522 9.64822 7.89507 9.64742 7.89507V8.78538ZM9.86764 8.30705C9.85483 8.52617 9.76595 8.73867 9.60265 8.90214L8.97278 8.27292C8.97443 8.27127 8.97539 8.26981 8.97619 8.26797C8.97707 8.26597 8.97845 8.26189 8.97885 8.25509L9.86764 8.30705ZM9.60249 8.9023C9.42971 9.07509 9.19775 9.17105 8.95341 9.17105V8.28074C8.95859 8.28074 8.96198 8.2798 8.96426 8.27885C8.96653 8.27791 8.96947 8.27623 8.97294 8.27276L9.60249 8.9023ZM8.95341 9.17105C8.46196 9.17105 8.0676 8.78533 8.03921 8.30739L8.92796 8.2546C8.92841 8.26217 8.9315 8.26881 8.93698 8.27404C8.93966 8.27659 8.94237 8.27823 8.94473 8.27919C8.9468 8.28004 8.94943 8.28074 8.95341 8.28074V9.17105ZM8.69524 8.67261C8.55145 8.75033 8.38097 8.79514 8.19885 8.78344L8.25593 7.89496C8.25593 7.89496 8.25688 7.89506 8.25923 7.89451C8.26174 7.89392 8.2661 7.89253 8.27193 7.88938L8.69524 8.67261ZM8.19826 8.7834C7.70399 8.75099 7.34167 8.33065 7.34167 7.85309H8.23198C8.23198 7.86814 8.23744 7.87973 8.24429 7.88729C8.25097 7.89465 8.2555 7.89493 8.25652 7.895L8.19826 8.7834ZM7.34167 7.85309V5.72748H8.23198V7.85309H7.34167ZM8.17236 5.95002L7.93032 6.36934L7.15924 5.92426L7.40128 5.50494L8.17236 5.95002ZM7.93072 6.36864C7.75871 6.66789 7.43853 6.85192 7.09423 6.85192V5.96161C7.12152 5.96161 7.14647 5.94647 7.15884 5.92496L7.93072 6.36864ZM7.09423 6.85192C6.92588 6.85192 6.76017 6.80777 6.61373 6.72386L7.05637 5.95138C7.06834 5.95824 7.08149 5.96161 7.09423 5.96161V6.85192ZM6.61178 6.72274C6.41192 6.60687 6.26645 6.41831 6.20644 6.19373L7.06658 5.96392C7.06618 5.9624 7.06507 5.95971 7.06292 5.95692C7.0608 5.95415 7.05883 5.9528 7.05832 5.9525L6.61178 6.72274ZM6.20658 6.19423C6.14634 5.96982 6.17788 5.73314 6.29407 5.53247L7.06454 5.9786C7.06517 5.9775 7.06629 5.97496 7.06676 5.97136C7.06724 5.96776 7.06684 5.96488 7.06645 5.96342L6.20658 6.19423ZM6.6793 5.31038C6.46094 5.36762 6.29749 5.52666 6.29627 5.52871C6.29587 5.5294 6.29526 5.53043 6.29507 5.53076C6.29496 5.53095 6.29477 5.53127 6.2947 5.53138C6.29466 5.53145 6.29458 5.53159 6.29456 5.53162C6.2945 5.53173 6.29452 5.5317 6.29469 5.53141C6.29499 5.53089 6.2955 5.53001 6.29624 5.52873C6.2977 5.5262 6.29989 5.5224 6.3028 5.51738C6.30859 5.50735 6.31711 5.49261 6.32798 5.47379C6.34973 5.43614 6.38084 5.38227 6.41834 5.31734C6.49334 5.18748 6.59383 5.01345 6.69582 4.83679C6.90016 4.48288 7.10966 4.11996 7.13338 4.07858L7.9057 4.52151C7.88112 4.56437 7.67053 4.92919 7.46685 5.28196C7.36484 5.45864 7.26433 5.6327 7.18932 5.76258C7.15182 5.82752 7.12068 5.88143 7.09892 5.91911C7.08804 5.93795 7.07949 5.95275 7.07365 5.96285C7.07074 5.96789 7.06848 5.9718 7.06693 5.97446C7.06617 5.97578 7.06554 5.97687 7.06508 5.97767C7.06486 5.97804 7.0646 5.9785 7.06434 5.97894C7.06425 5.97911 7.06396 5.9796 7.06362 5.98019C7.0634 5.98056 7.06278 5.98162 7.06236 5.98232C7.06112 5.9844 6.89767 6.14345 6.6793 6.20069V5.31038ZM7.11411 4.11622C7.11901 4.10541 7.13454 4.07057 7.14882 4.03846L7.96231 4.40023C7.94875 4.43073 7.93155 4.46935 7.92497 4.48387L7.11411 4.11622ZM7.14882 4.03845C7.15501 4.02454 7.16186 4.00676 7.17163 3.97919L8.01077 4.27669C7.99868 4.31079 7.98271 4.35437 7.96231 4.40024L7.14882 4.03845ZM7.17159 3.97931C7.47309 3.12813 8.23197 2.58984 9.1344 2.58984V3.48015C8.6106 3.48015 8.18691 3.77942 8.01081 4.27657L7.17159 3.97931ZM9.1344 2.58984C10.3395 2.58984 11.259 3.64071 11.259 4.8561H10.3687C10.3687 4.06315 9.78133 3.48015 9.1344 3.48015V2.58984ZM11.259 4.85608L11.2591 7.45168L10.3687 7.45171L10.3687 4.85611L11.259 4.85608ZM11.2591 7.4517C11.2591 7.69581 11.1633 7.92764 10.9908 8.10048L10.3606 7.47152C10.3642 7.468 10.3659 7.465 10.3668 7.46266C10.3678 7.46032 10.3687 7.45688 10.3687 7.4517H11.2591ZM10.9905 8.10077C10.8177 8.27358 10.5857 8.36952 10.3413 8.36952V7.47921C10.3466 7.47921 10.35 7.47826 10.3523 7.47732C10.3545 7.47638 10.3575 7.4747 10.3609 7.47123L10.9905 8.10077ZM10.108 7.54524L10.108 7.54523L10.5747 8.30347L10.5746 8.30348L10.108 7.54524ZM9.13441 3.73126C8.71117 3.73126 8.39023 3.95768 8.24749 4.36058L7.40829 4.06327C7.6763 3.30675 8.33214 2.84095 9.13441 2.84095V3.73126ZM8.24715 4.36153C8.2331 4.40091 8.21485 4.45064 8.19178 4.50246L7.37842 4.14037C7.38729 4.12045 7.39641 4.09656 7.40863 4.06231L8.24715 4.36153ZM8.19167 4.5027C8.17129 4.54842 8.15421 4.58703 8.14114 4.61318C8.13303 4.62941 8.1199 4.65443 8.10085 4.68214C8.08156 4.71022 8.06249 4.73139 8.06094 4.73316L7.39049 4.14737C7.39154 4.14617 7.39119 4.14656 7.39067 4.14718C7.38999 4.14797 7.38826 4.14998 7.38599 4.15275C7.38092 4.15893 7.37428 4.16745 7.36712 4.17787C7.3532 4.19813 7.34541 4.21385 7.34472 4.21523C7.34421 4.21624 7.34453 4.21564 7.34604 4.2124C7.34751 4.20927 7.34958 4.20475 7.35256 4.19817C7.35864 4.18473 7.36673 4.1666 7.37853 4.14014L8.19167 4.5027ZM7.43475 4.77717L7.43302 4.77568L8.01495 4.10187L8.01668 4.10336L7.43475 4.77717ZM8.11732 4.64723C8.04765 4.77869 7.84875 5.12294 7.28222 6.10385L6.51125 5.65857C7.08574 4.66389 7.27101 4.34286 7.33065 4.23032L8.11732 4.64723ZM7.28203 6.10417C7.31765 6.04261 7.32758 5.96835 7.30926 5.89941L6.44882 6.12809C6.40658 5.96917 6.42894 5.80083 6.51144 5.65825L7.28203 6.10417ZM7.30889 5.89802C7.29057 5.82999 7.24555 5.77048 7.18293 5.73433L6.73781 6.50539C6.59481 6.42283 6.49173 6.2875 6.44919 6.12948L7.30889 5.89802ZM7.1821 5.73385C7.13142 5.70475 7.08214 5.70494 7.04811 5.7141C7.01421 5.72323 6.97074 5.74795 6.94099 5.79979L7.71316 6.24297C7.51915 6.581 7.07577 6.69951 6.73865 6.50587L7.1821 5.73385ZM6.9416 5.79873L7.41819 4.9736L8.18914 5.41889L7.71255 6.24403L6.9416 5.79873ZM7.41846 4.97313C7.54704 4.75114 7.80949 4.64005 8.06124 4.70819L7.82864 5.56758C7.96995 5.60583 8.11724 5.54303 8.18887 5.41936L7.41846 4.97313ZM8.06014 4.70789C8.30987 4.7748 8.48315 5.00111 8.48315 5.25917H7.59284C7.59284 5.40365 7.68981 5.53039 7.82974 5.56787L8.06014 4.70789ZM8.48315 5.25917V7.85316H7.59284V5.25917H8.48315ZM8.48315 7.85316C8.48315 7.80243 8.46436 7.75632 8.43351 7.72103C8.40271 7.68579 8.34836 7.64941 8.27308 7.64446L8.21461 8.53285C7.83987 8.50819 7.59284 8.18175 7.59284 7.85316H8.48315ZM8.26736 7.64412C8.21476 7.64134 8.15052 7.6606 8.10169 7.70934L8.73068 8.33944C8.59014 8.47974 8.40382 8.54289 8.22034 8.53319L8.26736 7.64412ZM8.10141 7.70962C8.05917 7.75187 8.03569 7.80975 8.03569 7.86778H8.926C8.926 8.04459 8.85658 8.21354 8.73096 8.33916L8.10141 7.70962ZM8.03569 7.86778V6.17128H8.926V7.86778H8.03569ZM8.03569 6.17128C8.03569 5.85605 8.29123 5.60051 8.60646 5.60051V6.49082C8.78294 6.49082 8.926 6.34776 8.926 6.17128H8.03569ZM8.60646 5.60051C8.92151 5.60051 9.17723 5.8558 9.17723 6.17128H8.28692C8.28692 6.34786 8.43016 6.49082 8.60646 6.49082V5.60051ZM9.17723 6.1713L9.17715 8.25341L8.28684 8.25338L8.28692 6.17127L9.17723 6.1713ZM9.17715 8.2534C9.17715 8.12962 9.07719 8.02966 8.95342 8.02966V8.91997C8.58549 8.91997 8.28684 8.62133 8.28684 8.2534H9.17715ZM8.95342 8.02966C8.89548 8.02966 8.83788 8.05301 8.79572 8.09509L9.42466 8.72524C9.29896 8.85069 9.12997 8.91997 8.95342 8.91997V8.02966ZM8.79512 8.09569C8.75303 8.13785 8.72969 8.19546 8.72969 8.2534H9.62C9.62 8.42995 9.55072 8.59894 9.42526 8.72464L8.79512 8.09569ZM8.72969 8.2534V6.17128H9.62V8.2534H8.72969ZM8.72969 6.17128C8.72969 5.85624 8.98497 5.60051 9.30046 5.60051V6.49082C9.47704 6.49082 9.62 6.34757 9.62 6.17128H8.72969ZM9.30046 5.60051C9.61551 5.60051 9.87123 5.85579 9.87123 6.17128H8.98092C8.98092 6.34786 9.12417 6.49082 9.30046 6.49082V5.60051ZM9.87123 6.1713L9.87116 7.84829L8.98084 7.84825L8.98092 6.17126L9.87123 6.1713ZM9.87116 7.84827V7.86778H8.98084V7.84827H9.87116ZM9.87116 7.86778C9.87116 7.74371 9.77098 7.64396 9.6475 7.64396V8.53427C9.27971 8.53427 8.98084 8.23585 8.98084 7.86778H9.87116ZM9.6475 7.64396C9.58835 7.64396 9.53108 7.66802 9.49009 7.70886L10.1185 8.33959C9.99344 8.46413 9.82511 8.53427 9.6475 8.53427V7.64396ZM9.48979 7.70915C9.44721 7.75166 9.42377 7.80973 9.42377 7.86769H10.3141C10.3141 8.04443 10.2447 8.21357 10.1187 8.33929L9.48979 7.70915ZM9.42377 7.86769V6.17119H10.3141V7.86769H9.42377ZM9.42377 6.17119C9.42377 5.85614 9.67906 5.60042 9.99454 5.60042V6.49073C10.1711 6.49073 10.3141 6.34749 10.3141 6.17119H9.42377ZM9.99454 5.60042C10.3096 5.60042 10.5653 5.8557 10.5653 6.17119H9.675C9.675 6.34777 9.81825 6.49073 9.99454 6.49073V5.60042ZM10.5653 6.17125L10.5652 7.45181L9.67485 7.4517L9.675 6.17114L10.5653 6.17125ZM10.5652 7.45175C10.5652 7.32827 10.4654 7.2281 10.3413 7.2281V8.11841C9.97329 8.11841 9.67485 7.81955 9.67485 7.45175H10.5652ZM10.3413 7.2281C10.2829 7.2281 10.2253 7.25174 10.1835 7.29353L10.8124 7.92367C10.6872 8.04868 10.5185 8.11841 10.3413 8.11841V7.2281ZM10.1832 7.29383C10.1408 7.33622 10.1175 7.39407 10.1175 7.45175H11.0078C11.0078 7.62806 10.9388 7.79729 10.8127 7.92337L10.1832 7.29383ZM10.1175 7.45174L10.1176 4.85614L11.0079 4.85617L11.0078 7.45177L10.1175 7.45174ZM10.1176 4.85616C10.1176 4.19581 9.63747 3.73129 9.1344 3.73129V2.84098C10.2066 2.84098 11.0079 3.78525 11.0079 4.85616H10.1176ZM8.70637 3.16384L8.70638 3.16381L9.56244 3.4084L9.56243 3.40843L8.70637 3.16384Z" fill="#4CAF4F" mask="url(#path-1-inside-1_212_1413)"/>
  <mask id="path-3-inside-2_212_1413" fill="white">
    <path d="M5.40593 9.72833L7.22875 8.63481C7.44852 8.50283 7.7313 8.55891 7.87225 8.76256C7.9237 8.83673 7.94997 8.92318 7.95406 9.0112C8.02202 8.97573 8.09596 8.95646 8.17123 8.95646C8.20977 8.95646 8.24847 8.96125 8.2867 8.97077C8.40917 9.00137 8.51237 9.0779 8.57727 9.18613C8.64224 9.29452 8.6612 9.42155 8.6306 9.54388C8.60236 9.65707 8.53354 9.75233 8.43781 9.81769C8.50475 9.85718 8.56248 9.91106 8.60354 9.97965C8.66852 10.088 8.68747 10.215 8.65695 10.3375C8.62635 10.4598 8.54982 10.563 8.44143 10.628L8.4408 10.6284C8.50656 10.6678 8.56327 10.7212 8.60386 10.7887C8.66891 10.8971 8.68787 11.0242 8.65727 11.1466C8.62659 11.269 8.55006 11.3722 8.44183 11.4372L6.21614 12.7724C5.80074 13.0215 5.32053 13.1075 4.86416 13.0143C4.40369 12.9202 4.02235 12.6556 3.79048 12.269C3.42353 11.6575 3.47852 10.9349 3.93371 10.3834C3.95456 10.3582 3.97509 10.3326 3.99373 10.306C4.01347 10.2779 4.03652 10.2449 4.04439 10.2336C4.0915 10.1494 4.86032 8.76423 4.86024 8.76439C4.93787 8.6243 5.08339 8.545 5.23347 8.54508C5.30347 8.54508 5.3745 8.56231 5.44003 8.59865C5.51916 8.64286 5.58562 8.70728 5.63211 8.78491C5.72768 8.9442 5.73106 9.14352 5.64108 9.30484L5.40593 9.72833ZM5.41687 8.91405C5.39249 8.87338 5.35898 8.84097 5.31799 8.81801C5.23328 8.77113 5.12662 8.80165 5.07998 8.88605C4.52985 9.87714 4.34232 10.2149 4.26995 10.3351L4.2716 10.3355C4.26554 10.3556 4.26554 10.3556 4.19932 10.4502C4.17682 10.4823 4.15236 10.513 4.12742 10.5433C3.73601 11.0175 3.69056 11.6143 4.00574 12.1398C4.20097 12.4653 4.52363 12.6885 4.91432 12.7682C5.30925 12.8485 5.72552 12.7738 6.0868 12.557L8.31269 11.2217C8.36351 11.1913 8.39938 11.1429 8.41369 11.0856C8.42801 11.0283 8.41912 10.9688 8.3886 10.918C8.32583 10.8133 8.18952 10.779 8.0849 10.842L6.98684 11.5007C6.92737 11.5365 6.85013 11.5173 6.8145 11.4577C6.77879 11.3983 6.79806 11.3211 6.85752 11.2854L7.95567 10.6266L8.3123 10.4127C8.36312 10.3821 8.39906 10.3338 8.41338 10.2766C8.42769 10.2192 8.41881 10.1596 8.38829 10.1089C8.32544 10.0042 8.18912 9.97013 8.08459 10.0329L6.62981 10.9056C6.57018 10.9414 6.49318 10.9221 6.45747 10.8626C6.42176 10.8031 6.4411 10.726 6.50049 10.6902L8.28595 9.61917C8.33677 9.58865 8.37264 9.54035 8.38695 9.48301C8.40127 9.42575 8.39238 9.3662 8.36194 9.31539C8.3315 9.26466 8.28312 9.22879 8.22578 9.21447C8.16812 9.20016 8.10882 9.20905 8.05816 9.23941L7.72764 9.43771C7.72756 9.43771 7.72756 9.43778 7.72748 9.43778H7.7274L6.2727 10.3105C6.21308 10.3464 6.13599 10.327 6.10036 10.2675C6.06465 10.208 6.084 10.1308 6.14339 10.0951L7.59817 9.22242C7.64898 9.1919 7.68493 9.14352 7.69924 9.08634C7.71498 9.02357 7.70302 8.95939 7.66574 8.90558C7.60108 8.81206 7.4628 8.7872 7.35795 8.85021L5.13367 10.1846C5.08498 10.2137 5.02261 10.2066 4.98178 10.1672C4.94088 10.1277 4.93168 10.0656 4.95921 10.016L5.42172 9.1827C5.46813 9.0994 5.46632 8.99652 5.41684 8.91408L5.41687 8.91405Z"/>
  </mask>
  <path d="M5.40593 9.72833L7.22875 8.63481C7.44852 8.50283 7.7313 8.55891 7.87225 8.76256C7.9237 8.83673 7.94997 8.92318 7.95406 9.0112C8.02202 8.97573 8.09596 8.95646 8.17123 8.95646C8.20977 8.95646 8.24847 8.96125 8.2867 8.97077C8.40917 9.00137 8.51237 9.0779 8.57727 9.18613C8.64224 9.29452 8.6612 9.42155 8.6306 9.54388C8.60236 9.65707 8.53354 9.75233 8.43781 9.81769C8.50475 9.85718 8.56248 9.91106 8.60354 9.97965C8.66852 10.088 8.68747 10.215 8.65695 10.3375C8.62635 10.4598 8.54982 10.563 8.44143 10.628L8.4408 10.6284C8.50656 10.6678 8.56327 10.7212 8.60386 10.7887C8.66891 10.8971 8.68787 11.0242 8.65727 11.1466C8.62659 11.269 8.55006 11.3722 8.44183 11.4372L6.21614 12.7724C5.80074 13.0215 5.32053 13.1075 4.86416 13.0143C4.40369 12.9202 4.02235 12.6556 3.79048 12.269C3.42353 11.6575 3.47852 10.9349 3.93371 10.3834C3.95456 10.3582 3.97509 10.3326 3.99373 10.306C4.01347 10.2779 4.03652 10.2449 4.04439 10.2336C4.0915 10.1494 4.86032 8.76423 4.86024 8.76439C4.93787 8.6243 5.08339 8.545 5.23347 8.54508C5.30347 8.54508 5.3745 8.56231 5.44003 8.59865C5.51916 8.64286 5.58562 8.70728 5.63211 8.78491C5.72768 8.9442 5.73106 9.14352 5.64108 9.30484L5.40593 9.72833ZM5.41687 8.91405C5.39249 8.87338 5.35898 8.84097 5.31799 8.81801C5.23328 8.77113 5.12662 8.80165 5.07998 8.88605C4.52985 9.87714 4.34232 10.2149 4.26995 10.3351L4.2716 10.3355C4.26554 10.3556 4.26554 10.3556 4.19932 10.4502C4.17682 10.4823 4.15236 10.513 4.12742 10.5433C3.73601 11.0175 3.69056 11.6143 4.00574 12.1398C4.20097 12.4653 4.52363 12.6885 4.91432 12.7682C5.30925 12.8485 5.72552 12.7738 6.0868 12.557L8.31269 11.2217C8.36351 11.1913 8.39938 11.1429 8.41369 11.0856C8.42801 11.0283 8.41912 10.9688 8.3886 10.918C8.32583 10.8133 8.18952 10.779 8.0849 10.842L6.98684 11.5007C6.92737 11.5365 6.85013 11.5173 6.8145 11.4577C6.77879 11.3983 6.79806 11.3211 6.85752 11.2854L7.95567 10.6266L8.3123 10.4127C8.36312 10.3821 8.39906 10.3338 8.41338 10.2766C8.42769 10.2192 8.41881 10.1596 8.38829 10.1089C8.32544 10.0042 8.18912 9.97013 8.08459 10.0329L6.62981 10.9056C6.57018 10.9414 6.49318 10.9221 6.45747 10.8626C6.42176 10.8031 6.4411 10.726 6.50049 10.6902L8.28595 9.61917C8.33677 9.58865 8.37264 9.54035 8.38695 9.48301C8.40127 9.42575 8.39238 9.3662 8.36194 9.31539C8.3315 9.26466 8.28312 9.22879 8.22578 9.21447C8.16812 9.20016 8.10882 9.20905 8.05816 9.23941L7.72764 9.43771C7.72756 9.43771 7.72756 9.43778 7.72748 9.43778H7.7274L6.2727 10.3105C6.21308 10.3464 6.13599 10.327 6.10036 10.2675C6.06465 10.208 6.084 10.1308 6.14339 10.0951L7.59817 9.22242C7.64898 9.1919 7.68493 9.14352 7.69924 9.08634C7.71498 9.02357 7.70302 8.95939 7.66574 8.90558C7.60108 8.81206 7.4628 8.7872 7.35795 8.85021L5.13367 10.1846C5.08498 10.2137 5.02261 10.2066 4.98178 10.1672C4.94088 10.1277 4.93168 10.0656 4.95921 10.016L5.42172 9.1827C5.46813 9.0994 5.46632 8.99652 5.41684 8.91408L5.41687 8.91405Z" fill="#4CAF4F"/>
  <path d="M5.40593 9.72833L5.63494 10.1101L4.21024 10.9647L5.01675 9.51223L5.40593 9.72833ZM7.22875 8.63481L7.45794 9.01644L7.45776 9.01655L7.22875 8.63481ZM7.87225 8.76256L7.50646 9.01625L7.50623 9.01591L7.87225 8.76256ZM7.95406 9.0112L8.16005 9.40583L7.54175 9.72857L7.50938 9.03186L7.95406 9.0112ZM8.2867 8.97077L8.39425 8.5388L8.3946 8.53889L8.2867 8.97077ZM8.57727 9.18613L8.95905 8.9572L8.95909 8.95726L8.57727 9.18613ZM8.6306 9.54388L8.19868 9.43613L8.19875 9.43585L8.6306 9.54388ZM8.43781 9.81769L8.21164 10.2011L7.60818 9.84514L8.18679 9.45006L8.43781 9.81769ZM8.60354 9.97965L8.22173 10.2085L8.22159 10.2083L8.60354 9.97965ZM8.65695 10.3375L9.0889 10.4451L9.0888 10.4455L8.65695 10.3375ZM8.44143 10.628L8.20546 10.2505L8.21233 10.2464L8.44143 10.628ZM8.4408 10.6284L8.21197 11.0103L7.58812 10.6364L8.20487 10.2509L8.4408 10.6284ZM8.60386 10.7887L8.98546 10.5595L8.98555 10.5597L8.60386 10.7887ZM8.65727 11.1466L9.08915 11.2545L9.08907 11.2549L8.65727 11.1466ZM8.44183 11.4372L8.67097 11.8189L8.67084 11.8189L8.44183 11.4372ZM6.21614 12.7724L6.44515 13.1542L6.44508 13.1542L6.21614 12.7724ZM4.86416 13.0143L4.77507 13.4505L4.77505 13.4505L4.86416 13.0143ZM3.79048 12.269L4.17219 12.04L4.17222 12.04L3.79048 12.269ZM3.93371 10.3834L3.5904 10.1L3.59086 10.0995L3.93371 10.3834ZM3.99373 10.306L3.62924 10.0505L3.62958 10.05L3.99373 10.306ZM4.04439 10.2336L4.43282 10.451L4.42231 10.4698L4.41003 10.4875L4.04439 10.2336ZM4.86024 8.76439L5.2496 8.98017L4.46208 8.56531L4.86024 8.76439ZM5.23347 8.54508V8.99024H5.23323L5.23347 8.54508ZM5.44003 8.59865L5.65593 8.20936L5.65713 8.21003L5.44003 8.59865ZM5.63211 8.78491L5.25039 9.01394L5.25019 9.0136L5.63211 8.78491ZM5.64108 9.30484L5.25189 9.08874L5.25232 9.08798L5.64108 9.30484ZM5.41687 8.91405L5.79865 8.68513L5.95305 8.94263L5.77216 9.18225L5.41687 8.91405ZM5.31799 8.81801L5.53354 8.42851L5.53563 8.42968L5.31799 8.81801ZM5.07998 8.88605L5.46961 9.10135L5.4692 9.10209L5.07998 8.88605ZM4.26995 10.3351L4.16684 10.7681L3.5745 10.6271L3.88859 10.1055L4.26995 10.3351ZM4.2716 10.3355L4.37471 9.90243L4.83383 10.0117L4.69789 10.4637L4.2716 10.3355ZM4.19932 10.4502L4.56402 10.7055L4.56353 10.7062L4.19932 10.4502ZM4.12742 10.5433L4.47107 10.8263L4.47074 10.8267L4.12742 10.5433ZM4.00574 12.1398L3.62399 12.3688L3.62398 12.3688L4.00574 12.1398ZM4.91432 12.7682L4.82561 13.2044L4.82527 13.2044L4.91432 12.7682ZM6.0868 12.557L5.85777 12.1753L5.8578 12.1753L6.0868 12.557ZM8.31269 11.2217L8.08369 10.84L8.08392 10.8399L8.31269 11.2217ZM8.41369 11.0856L7.98179 10.9778L7.98183 10.9776L8.41369 11.0856ZM8.3886 10.918L8.00699 11.1472L8.00688 11.147L8.3886 10.918ZM8.0849 10.842L8.31456 11.2233L8.31391 11.2237L8.0849 10.842ZM6.98684 11.5007L6.75766 11.1191L6.75782 11.119L6.98684 11.5007ZM6.8145 11.4577L7.19613 11.2285L7.19648 11.2291L6.8145 11.4577ZM6.85752 11.2854L6.62834 10.9037L6.62852 10.9036L6.85752 11.2854ZM7.95567 10.6266L8.18467 11.0083L8.18467 11.0083L7.95567 10.6266ZM8.3123 10.4127L8.54151 10.7943L8.54131 10.7944L8.3123 10.4127ZM8.41338 10.2766L8.84528 10.3844L8.84521 10.3847L8.41338 10.2766ZM8.38829 10.1089L8.00683 10.3384L8.00662 10.338L8.38829 10.1089ZM8.08459 10.0329L8.31375 10.4145L8.31359 10.4146L8.08459 10.0329ZM6.62981 10.9056L6.4007 10.5239L6.4008 10.5239L6.62981 10.9056ZM6.45747 10.8626L6.83909 10.6334L6.8391 10.6334L6.45747 10.8626ZM6.50049 10.6902L6.27109 10.3088L6.27149 10.3085L6.50049 10.6902ZM8.28595 9.61917L8.51516 10.0008L8.51495 10.0009L8.28595 9.61917ZM8.38695 9.48301L7.95505 9.37519L7.95509 9.37505L8.38695 9.48301ZM8.36194 9.31539L8.74366 9.08636L8.74381 9.08662L8.36194 9.31539ZM8.22578 9.21447L8.33305 8.78244L8.3336 8.78257L8.22578 9.21447ZM8.05816 9.23941L7.82914 8.85768L7.8293 8.85759L8.05816 9.23941ZM7.72764 9.43771L7.95666 9.81943L7.85093 9.88286H7.72764V9.43771ZM7.7274 9.43778L7.49839 9.05606L7.60412 8.99263H7.7274V9.43778ZM6.2727 10.3105L6.04323 9.92905L6.04369 9.92877L6.2727 10.3105ZM6.10036 10.2675L6.48199 10.0383L6.48235 10.0389L6.10036 10.2675ZM6.14339 10.0951L5.91399 9.71364L5.91439 9.7134L6.14339 10.0951ZM7.59817 9.22242L7.82737 9.60403L7.82717 9.60415L7.59817 9.22242ZM7.69924 9.08634L7.26741 8.97824L7.26744 8.97812L7.69924 9.08634ZM7.66574 8.90558L7.29985 9.15914L7.29957 9.15873L7.66574 8.90558ZM7.35795 8.85021L7.58723 9.23177L7.58695 9.23194L7.35795 8.85021ZM5.13367 10.1846L5.36268 10.5663L5.36206 10.5667L5.13367 10.1846ZM4.98178 10.1672L4.67261 10.4875L4.6726 10.4875L4.98178 10.1672ZM4.95921 10.016L4.56993 9.80008L4.56998 9.79998L4.95921 10.016ZM5.42172 9.1827L5.0325 8.96667L5.03285 8.96604L5.42172 9.1827ZM5.41684 8.91408L5.03515 9.14315L4.88058 8.8856L5.06156 8.64587L5.41684 8.91408ZM5.17693 9.34659L6.99975 8.25308L7.45776 9.01655L5.63494 10.1101L5.17693 9.34659ZM6.99956 8.25319C7.40903 8.00728 7.95625 8.10174 8.23828 8.50921L7.50623 9.01591C7.50569 9.01514 7.50316 9.0114 7.4934 9.00946C7.48338 9.00747 7.4707 9.00877 7.45794 9.01644L6.99956 8.25319ZM8.23805 8.50887C8.3421 8.65889 8.39119 8.82808 8.39873 8.99054L7.50938 9.03186C7.50875 9.01827 7.5053 9.01457 7.50646 9.01625L8.23805 8.50887ZM7.74807 8.61657C7.87496 8.55034 8.01915 8.5113 8.17123 8.5113V9.40161C8.17277 9.40161 8.16908 9.40112 8.16005 9.40583L7.74807 8.61657ZM8.17123 8.5113C8.24683 8.5113 8.32163 8.52072 8.39425 8.5388L8.17916 9.40274C8.17532 9.40178 8.17272 9.40161 8.17123 9.40161V8.5113ZM8.3946 8.53889C8.63178 8.59815 8.83345 8.74776 8.95905 8.9572L8.1955 9.41507C8.19293 9.41078 8.19045 9.40841 8.18848 9.40695C8.18652 9.4055 8.18357 9.40384 8.1788 9.40265L8.3946 8.53889ZM8.95909 8.95726C9.08454 9.16656 9.12178 9.41472 9.06245 9.6519L8.19875 9.43585C8.19992 9.43119 8.19985 9.42787 8.19949 9.42543C8.19912 9.42298 8.19817 9.41953 8.19546 9.415L8.95909 8.95726ZM9.06252 9.65163C9.00657 9.87589 8.87014 10.0615 8.68883 10.1853L8.18679 9.45006C8.19241 9.44622 8.19515 9.44298 8.19634 9.44129C8.19744 9.43975 8.19814 9.43829 8.19868 9.43613L9.06252 9.65163ZM8.66398 9.43427C8.78729 9.50701 8.90192 9.6114 8.98549 9.75101L8.22159 10.2083C8.22205 10.2091 8.22218 10.209 8.22112 10.2079C8.21995 10.2068 8.21706 10.2043 8.21164 10.2011L8.66398 9.43427ZM8.98536 9.75078C9.11084 9.96012 9.14797 10.2081 9.0889 10.4451L8.22501 10.2298C8.22623 10.2249 8.22615 10.2215 8.22578 10.219C8.22541 10.2165 8.22446 10.2131 8.22173 10.2085L8.98536 9.75078ZM9.0888 10.4455C9.02948 10.6826 8.87982 10.8841 8.67053 11.0097L8.21233 10.2464C8.21685 10.2437 8.21933 10.2411 8.22082 10.239C8.22231 10.237 8.22394 10.2341 8.2251 10.2294L9.0888 10.4455ZM8.67736 11.0055L8.67673 11.0059L8.20487 10.2509L8.2055 10.2506L8.67736 11.0055ZM8.66963 10.2466C8.79072 10.3192 8.90307 10.4224 8.98546 10.5595L8.22227 11.018C8.22262 11.0186 8.22262 11.0183 8.22148 11.0172C8.22024 11.016 8.21733 11.0135 8.21197 11.0103L8.66963 10.2466ZM8.98555 10.5597C9.11126 10.7691 9.14841 11.0173 9.08915 11.2545L8.22539 11.0387C8.22659 11.0339 8.22651 11.0305 8.22615 11.0281C8.22579 11.0257 8.22486 11.0223 8.22217 11.0178L8.98555 10.5597ZM9.08907 11.2549C9.02969 11.4918 8.88019 11.6932 8.67097 11.8189L8.21269 11.0555C8.21707 11.0529 8.21953 11.0504 8.22105 11.0483C8.22257 11.0463 8.22426 11.0432 8.22547 11.0384L9.08907 11.2549ZM8.67084 11.8189L6.44515 13.1542L5.98713 12.3907L8.21282 11.0555L8.67084 11.8189ZM6.44508 13.1542C5.93846 13.458 5.34529 13.5669 4.77507 13.4505L4.95324 12.5782C5.29577 12.6481 5.66303 12.5851 5.9872 12.3907L6.44508 13.1542ZM4.77505 13.4505C4.19824 13.3326 3.70785 12.9966 3.40874 12.498L4.17222 12.04C4.33685 12.3145 4.60914 12.5079 4.95326 12.5782L4.77505 13.4505ZM3.40876 12.4981C2.9444 11.7241 3.01566 10.7964 3.5904 10.1L4.27703 10.6668C3.94138 11.0734 3.90266 11.5908 4.17219 12.04L3.40876 12.4981ZM3.59086 10.0995C3.60929 10.0772 3.62088 10.0624 3.62924 10.0505L4.35822 10.5616C4.32929 10.6028 4.29983 10.6393 4.27656 10.6674L3.59086 10.0995ZM3.62958 10.05C3.64881 10.0226 3.67136 9.99029 3.67874 9.97967L4.41003 10.4875C4.40168 10.4995 4.37813 10.5333 4.35788 10.5621L3.62958 10.05ZM3.65595 10.0161C3.679 9.97495 3.88233 9.6088 4.08081 9.25129C4.17985 9.0729 4.27741 8.89715 4.35021 8.766C4.38661 8.70042 4.41681 8.646 4.43792 8.60798C4.44847 8.58897 4.45675 8.57405 4.46239 8.56389C4.46521 8.55881 4.46737 8.55492 4.46883 8.55229C4.46956 8.55098 4.47012 8.54998 4.47049 8.5493C4.47068 8.54896 4.47083 8.54868 4.47094 8.54849C4.47099 8.54839 4.47106 8.54828 4.47112 8.54817C4.47115 8.54811 4.47123 8.54797 4.47128 8.54787C4.47144 8.5476 5.06836 8.37088 5.2584 8.96347L4.46208 8.56531C4.65211 9.1579 5.24903 8.98119 5.24917 8.98094C5.24921 8.98086 5.24928 8.98075 5.24929 8.98073C5.2493 8.98071 5.24929 8.98072 5.24925 8.98079C5.24918 8.98093 5.24905 8.98115 5.24887 8.98148C5.24851 8.98213 5.24797 8.98311 5.24724 8.98441C5.24579 8.98702 5.24364 8.99091 5.24082 8.99599C5.23518 9.00614 5.22691 9.02105 5.21635 9.04006C5.19524 9.07809 5.16503 9.13252 5.12863 9.19809C5.05583 9.32925 4.95826 9.50502 4.85921 9.68343C4.66152 10.0395 4.45689 10.408 4.43282 10.451L3.65595 10.0161ZM4.47088 8.54861C4.63024 8.26104 4.92852 8.09976 5.23371 8.09993L5.23323 8.99024C5.2364 8.99024 5.23914 8.98949 5.24176 8.98798C5.24501 8.98611 5.248 8.98305 5.2496 8.98017L4.47088 8.54861ZM5.23347 8.09993C5.37687 8.09993 5.52249 8.13535 5.65593 8.20936L5.22412 8.98794C5.22651 8.98927 5.23008 8.99024 5.23347 8.99024V8.09993ZM5.65713 8.21003C5.80402 8.29209 5.92741 8.41156 6.01403 8.55623L5.25019 9.0136C5.24384 9.00299 5.23429 8.99363 5.22292 8.98728L5.65713 8.21003ZM6.01383 8.55588C6.1909 8.85101 6.19792 9.22039 6.02984 9.5217L5.25232 9.08798C5.26421 9.06666 5.26446 9.03738 5.25039 9.01394L6.01383 8.55588ZM6.03026 9.52093L5.79512 9.94442L5.01675 9.51223L5.25189 9.08874L6.03026 9.52093ZM5.03508 9.14297C5.05073 9.16906 5.0739 9.19151 5.10036 9.20634L5.53563 8.42968C5.64405 8.49044 5.73424 8.5777 5.79865 8.68513L5.03508 9.14297ZM5.10245 9.2075C5.23166 9.279 5.39658 9.23351 5.46961 9.10135L4.69035 8.67074C4.85666 8.36978 5.2349 8.26325 5.53354 8.42851L5.10245 9.2075ZM5.4692 9.10209C4.92277 10.0865 4.72902 10.4356 4.65131 10.5647L3.88859 10.1055C3.95561 9.99415 4.13693 9.66778 4.69076 8.67L5.4692 9.10209ZM4.37306 9.90204L4.37471 9.90243L4.16849 10.7685L4.16684 10.7681L4.37306 9.90204ZM4.69789 10.4637C4.69726 10.4658 4.68911 10.4946 4.67487 10.5271C4.66053 10.5599 4.64512 10.5856 4.63469 10.6022C4.61822 10.6283 4.59282 10.6643 4.56402 10.7055L3.83461 10.195C3.85151 10.1708 3.86299 10.1544 3.87142 10.1422C3.87554 10.1363 3.87829 10.1322 3.88013 10.1295C3.88204 10.1267 3.8822 10.1263 3.88136 10.1277C3.87996 10.1299 3.86983 10.146 3.85926 10.1701C3.85391 10.1823 3.85005 10.1929 3.84746 10.2006C3.8463 10.2041 3.8455 10.2067 3.8452 10.2076C3.84497 10.2084 3.84483 10.2089 3.84531 10.2073L4.69789 10.4637ZM4.56353 10.7062C4.5314 10.7519 4.49863 10.7928 4.47107 10.8263L3.78377 10.2603C3.80609 10.2332 3.82224 10.2126 3.8351 10.1943L4.56353 10.7062ZM4.47074 10.8267C4.1988 11.1561 4.16973 11.5478 4.38749 11.9109L3.62398 12.3688C3.21139 11.6809 3.27322 10.8789 3.7841 10.2599L4.47074 10.8267ZM4.38749 11.9108C4.51493 12.1233 4.72798 12.2758 5.00336 12.3321L4.82527 13.2044C4.31928 13.1011 3.887 12.8073 3.62399 12.3688L4.38749 11.9108ZM5.00302 12.332C5.28392 12.3891 5.58737 12.3376 5.85777 12.1753L6.31584 12.9387C5.86366 13.2101 5.33458 13.3079 4.82561 13.2044L5.00302 12.332ZM5.8578 12.1753L8.08369 10.84L8.54169 11.6035L6.3158 12.9388L5.8578 12.1753ZM8.08392 10.8399C8.03349 10.8701 7.99616 10.9202 7.98179 10.9778L8.84559 11.1934C8.80259 11.3656 8.69352 11.5125 8.54146 11.6036L8.08392 10.8399ZM7.98183 10.9776C7.96741 11.0353 7.97686 11.097 8.00699 11.1472L8.77021 10.6888C8.86138 10.8405 8.88861 11.0213 8.84556 11.1935L7.98183 10.9776ZM8.00688 11.147C8.07007 11.2523 8.20718 11.288 8.31456 11.2233L7.85524 10.4606C8.17185 10.27 8.58159 10.3744 8.77032 10.6889L8.00688 11.147ZM8.31391 11.2237L7.21585 11.8825L6.75782 11.119L7.85589 10.4602L8.31391 11.2237ZM7.21601 11.8824C6.94632 12.0443 6.59498 11.9578 6.43251 11.6863L7.19648 11.2291C7.10527 11.0767 6.90843 11.0286 6.75766 11.1191L7.21601 11.8824ZM6.43287 11.6869C6.27055 11.4166 6.35817 11.066 6.62835 10.9037L7.0867 11.667C7.23794 11.5762 7.28702 11.3799 7.19613 11.2285L6.43287 11.6869ZM6.62852 10.9036L7.72667 10.2449L8.18467 11.0083L7.08652 11.6671L6.62852 10.9036ZM7.72666 10.2449L8.0833 10.0309L8.54131 10.7944L8.18467 11.0083L7.72666 10.2449ZM8.0831 10.031C8.03352 10.0608 7.99608 10.1104 7.98155 10.1685L8.84521 10.3847C8.80205 10.5571 8.69271 10.7035 8.54151 10.7943L8.0831 10.031ZM7.98148 10.1688C7.96718 10.226 7.9764 10.2878 8.00683 10.3384L8.76974 9.87941C8.86121 10.0315 8.88821 10.2124 8.84528 10.3844L7.98148 10.1688ZM8.00662 10.338C8.07016 10.4438 8.20723 10.4785 8.31375 10.4145L7.85543 9.65126C8.17102 9.46176 8.58071 9.56453 8.76995 9.87977L8.00662 10.338ZM8.31359 10.4146L6.85881 11.2874L6.4008 10.5239L7.85559 9.65116L8.31359 10.4146ZM6.85891 11.2873C6.58821 11.4498 6.23791 11.3617 6.07583 11.0918L6.8391 10.6334C6.74844 10.4824 6.55215 10.433 6.4007 10.5239L6.85891 11.2873ZM6.07584 11.0918C5.91332 10.8211 6.00158 10.4708 6.27109 10.3088L6.72989 11.0717C6.88063 10.9811 6.93019 10.7851 6.83909 10.6334L6.07584 11.0918ZM6.27149 10.3085L8.05696 9.23743L8.51495 10.0009L6.72949 11.072L6.27149 10.3085ZM8.05675 9.23756C8.00696 9.26746 7.9695 9.31733 7.95505 9.37519L8.81885 9.59083C8.77578 9.76337 8.66657 9.90984 8.51516 10.0008L8.05675 9.23756ZM7.95509 9.37505C7.94068 9.43269 7.95014 9.49421 7.98007 9.54416L8.74381 9.08662C8.83462 9.2382 8.86186 9.4188 8.81882 9.59098L7.95509 9.37505ZM7.98022 9.54442C8.01043 9.59476 8.06047 9.63202 8.11796 9.64637L8.3336 8.78257C8.50577 8.82556 8.65257 8.93455 8.74366 9.08636L7.98022 9.54442ZM8.11851 9.64651C8.17492 9.66052 8.23649 9.65151 8.28702 9.62123L7.8293 8.85759C7.98114 8.76658 8.16133 8.7398 8.33305 8.78244L8.11851 9.64651ZM8.28718 9.62113L7.95666 9.81943L7.49862 9.05598L7.82914 8.85768L8.28718 9.62113ZM7.72764 9.88286C7.74625 9.88286 7.76584 9.88169 7.78621 9.87899C7.80662 9.87628 7.82716 9.87211 7.84764 9.86638C7.86814 9.86064 7.88771 9.85357 7.90627 9.84544C7.92479 9.83732 7.94157 9.82847 7.95662 9.81944C7.98646 9.80153 8.0085 9.78352 8.02209 9.77153C8.02888 9.76554 8.03418 9.76049 8.03738 9.7574C8.04029 9.75458 8.04274 9.75212 8.04232 9.75253C8.04232 9.75253 8.04232 9.75253 8.04232 9.75253C8.04232 9.75254 8.04231 9.75254 8.0423 9.75255C8.04229 9.75256 8.04227 9.75258 8.04225 9.75261C8.0422 9.75266 8.04211 9.75274 8.04201 9.75284C8.04182 9.75303 8.04149 9.75336 8.04109 9.75376C8.0403 9.75454 8.03899 9.75583 8.03736 9.75741C8.03416 9.76051 8.02886 9.76557 8.02206 9.77156C8.00846 9.78356 7.98641 9.80158 7.95656 9.81949C7.9415 9.82852 7.92472 9.83738 7.90619 9.8455C7.88762 9.85364 7.86804 9.86071 7.84754 9.86645C7.82705 9.87219 7.8065 9.87636 7.78608 9.87907C7.76571 9.88177 7.7461 9.88294 7.72748 9.88294V8.99263C7.70888 8.99263 7.68928 8.9938 7.66892 8.9965C7.64851 8.99921 7.62796 9.00338 7.60748 9.00911C7.58698 9.01485 7.56741 9.02192 7.54885 9.03005C7.53033 9.03817 7.51355 9.04703 7.4985 9.05605C7.46866 9.07396 7.44662 9.09197 7.43303 9.10396C7.42624 9.10995 7.42094 9.115 7.41775 9.11809C7.41484 9.12091 7.41239 9.12338 7.4128 9.12296C7.4128 9.12296 7.4128 9.12296 7.4128 9.12296C7.41281 9.12296 7.41281 9.12295 7.41282 9.12294C7.41283 9.12293 7.41285 9.12291 7.41288 9.12289C7.41293 9.12284 7.41301 9.12275 7.41311 9.12265C7.41331 9.12246 7.41363 9.12213 7.41403 9.12173C7.41482 9.12095 7.41613 9.11966 7.41776 9.11808C7.42096 9.11498 7.42627 9.10992 7.43306 9.10393C7.44666 9.09193 7.46871 9.07391 7.49856 9.056C7.51362 9.04697 7.53041 9.03811 7.54893 9.02999C7.5675 9.02185 7.58708 9.01478 7.60758 9.00904C7.62808 9.0033 7.64863 8.99913 7.66905 8.99642C7.68942 8.99372 7.70902 8.99255 7.72764 8.99255V9.88286ZM7.72748 9.88294H7.7274V8.99263H7.72748V9.88294ZM7.95641 9.81951L6.50171 10.6922L6.04369 9.92877L7.49839 9.05606L7.95641 9.81951ZM6.50217 10.692C6.23149 10.8548 5.88043 10.7669 5.71838 10.4961L6.48235 10.0389C6.39155 9.88717 6.19467 9.83795 6.04323 9.92905L6.50217 10.692ZM5.71873 10.4967C5.55621 10.226 5.64447 9.8757 5.91399 9.71364L6.37279 10.4766C6.52353 10.386 6.57309 10.19 6.48199 10.0383L5.71873 10.4967ZM5.91439 9.7134L7.36917 8.84068L7.82717 9.60415L6.37239 10.4769L5.91439 9.7134ZM7.36897 8.84081C7.31939 8.87058 7.28194 8.9202 7.26741 8.97824L8.13107 9.19444C8.08791 9.36685 7.97857 9.51322 7.82737 9.60403L7.36897 8.84081ZM7.26744 8.97812C7.25146 9.04189 7.26529 9.10926 7.29985 9.15914L8.03162 8.65203C8.14076 8.80951 8.17849 9.00525 8.13105 9.19456L7.26744 8.97812ZM7.29957 9.15873C7.34272 9.22115 7.40213 9.24905 7.44811 9.25732C7.49418 9.26561 7.54351 9.25805 7.58723 9.23177L7.12867 8.46864C7.41033 8.29939 7.81806 8.34311 8.03191 8.65244L7.29957 9.15873ZM7.58695 9.23194L5.36268 10.5663L4.90467 9.80284L7.12894 8.46847L7.58695 9.23194ZM5.36206 10.5667C5.14132 10.6986 4.85855 10.667 4.67261 10.4875L5.29095 9.84691C5.18667 9.74625 5.02864 9.72874 4.90528 9.80247L5.36206 10.5667ZM4.6726 10.4875C4.48651 10.3078 4.44476 10.0257 4.56993 9.80008L5.34848 10.2319C5.4186 10.1055 5.39525 9.94761 5.29096 9.84692L4.6726 10.4875ZM4.56998 9.79998L5.0325 8.96667L5.81094 9.39873L5.34843 10.232L4.56998 9.79998ZM5.03285 8.96604C5.0011 9.02303 5.00332 9.09011 5.03515 9.14315L5.79854 8.685C5.92932 8.90292 5.93516 9.17577 5.8106 9.39936L5.03285 8.96604ZM5.06156 8.64587L5.06158 8.64584L5.77216 9.18225L5.77213 9.18229L5.06156 8.64587Z" fill="#4CAF4F" mask="url(#path-3-inside-2_212_1413)"/>
  <path d="M9.73103 8.98515C9.69629 8.98544 9.66137 8.98984 9.62691 8.99846L9.73103 8.98515ZM9.73103 8.98515C9.73169 8.97559 9.73253 8.96601 9.73356 8.95642L9.73103 8.98515ZM9.3274 9.99427C9.32739 9.99429 9.32738 9.99431 9.32736 9.99433C9.32736 9.99434 9.32736 9.99434 9.32736 9.99434L9.3274 9.99427ZM9.3274 9.99427L9.3029 9.97954L9.32742 9.99424M9.3274 9.99427L9.32742 9.99424M9.32742 9.99424C9.32796 9.99334 9.3285 9.99245 9.32904 9.99157L9.32742 9.99424ZM11.034 11.3099L11.034 11.31L11.034 11.3099Z" fill="#4CAF4F" stroke="#4CAF4F" stroke-width="0.445155"/>
</svg>