<svg xmlns="http://www.w3.org/2000/svg" width="11" height="12" viewBox="0 0 11 12" fill="none">
  <path opacity="0.1" fill-rule="evenodd" clip-rule="evenodd" d="M0.0880127 5.72721C0.0880127 2.77698 2.47965 0.385345 5.42988 0.385345C8.38011 0.385345 10.7717 2.77698 10.7717 5.72721C10.7717 8.67744 8.38011 11.0691 5.42988 11.0691C2.47965 11.0691 0.0880127 8.67744 0.0880127 5.72721Z" fill="white"/>
  <path fill-rule="evenodd" clip-rule="evenodd" d="M5.43007 2.8782C4.65632 2.8782 4.55922 2.88159 4.25532 2.89542C3.95202 2.90931 3.74499 2.95732 3.56384 3.02778C3.37646 3.10055 3.21751 3.19789 3.05915 3.35631C2.90067 3.51466 2.80333 3.67362 2.73032 3.86094C2.65969 4.04215 2.61162 4.24924 2.59796 4.55242C2.58437 4.85632 2.58081 4.95348 2.58081 5.72723C2.58081 6.50098 2.58425 6.59778 2.59802 6.90168C2.61197 7.20498 2.65999 7.41201 2.73038 7.59316C2.80321 7.78054 2.90055 7.9395 3.05897 8.09785C3.21727 8.25633 3.37622 8.35391 3.56349 8.42668C3.74476 8.49713 3.95184 8.54515 4.25509 8.55904C4.55898 8.57287 4.65603 8.57625 5.42972 8.57625C6.20352 8.57625 6.30033 8.57287 6.60423 8.55904C6.90753 8.54515 7.1148 8.49713 7.29606 8.42668C7.48339 8.35391 7.6421 8.25633 7.8004 8.09785C7.95888 7.9395 8.05622 7.78054 8.12923 7.59322C8.19926 7.41201 8.24734 7.20492 8.26159 6.90174C8.27524 6.59784 8.2788 6.50098 8.2788 5.72723C8.2788 4.95348 8.27524 4.85638 8.26159 4.55248C8.24734 4.24918 8.19926 4.04215 8.12923 3.861C8.05622 3.67362 7.95888 3.51466 7.8004 3.35631C7.64192 3.19783 7.48345 3.10049 7.29589 3.02778C7.11426 2.95732 6.90711 2.90931 6.60381 2.89542C6.29991 2.88159 6.20317 2.8782 5.42918 2.8782H5.43007ZM5.17448 3.39161C5.25033 3.3915 5.33497 3.39161 5.43006 3.39161C6.19075 3.39161 6.28091 3.39434 6.5813 3.408C6.85908 3.4207 7.00984 3.46711 7.11027 3.50611C7.24323 3.55775 7.33802 3.61948 7.43767 3.71919C7.53739 3.81891 7.59912 3.91388 7.65087 4.04683C7.68987 4.14714 7.73634 4.2979 7.74899 4.57568C7.76264 4.87602 7.76561 4.96623 7.76561 5.72657C7.76561 6.4869 7.76264 6.57712 7.74899 6.87745C7.73629 7.15523 7.68987 7.306 7.65087 7.4063C7.59924 7.53926 7.53739 7.63393 7.43767 7.73359C7.33796 7.8333 7.24329 7.89503 7.11027 7.94667C7.00996 7.98584 6.85908 8.03214 6.5813 8.04484C6.28097 8.05849 6.19075 8.06146 5.43006 8.06146C4.66931 8.06146 4.57915 8.05849 4.27882 8.04484C4.00104 8.03202 3.85028 7.98561 3.74979 7.94661C3.61683 7.89497 3.52187 7.83324 3.42215 7.73353C3.32243 7.63381 3.26071 7.53908 3.20895 7.40607C3.16995 7.30576 3.12348 7.155 3.11084 6.87722C3.09718 6.57688 3.09445 6.48666 3.09445 5.72586C3.09445 4.96505 3.09718 4.8753 3.11084 4.57497C3.12354 4.29719 3.16995 4.14643 3.20895 4.046C3.26059 3.91305 3.32243 3.81808 3.42215 3.71836C3.52187 3.61865 3.61683 3.55692 3.74979 3.50516C3.85022 3.46599 4.00104 3.41969 4.27882 3.40693C4.54164 3.39506 4.64349 3.3915 5.17448 3.3909V3.39161ZM6.95085 3.86467C6.7621 3.86467 6.60896 4.01763 6.60896 4.20644C6.60896 4.39518 6.7621 4.54832 6.95085 4.54832C7.13959 4.54832 7.29273 4.39518 7.29273 4.20644C7.29273 4.01769 7.13959 3.86467 6.95085 3.86467ZM5.43008 4.26413C4.62208 4.26413 3.96698 4.91923 3.96698 5.72722C3.96698 6.53522 4.62208 7.19002 5.43008 7.19002C6.23807 7.19002 6.89293 6.53522 6.89293 5.72722C6.89293 4.91923 6.23807 4.26413 5.43008 4.26413ZM5.43007 4.77755C5.95452 4.77755 6.37974 5.2027 6.37974 5.72722C6.37974 6.25168 5.95452 6.6769 5.43007 6.6769C4.90555 6.6769 4.48039 6.25168 4.48039 5.72722C4.48039 5.2027 4.90555 4.77755 5.43007 4.77755Z" fill="white"/>
</svg>