<svg xmlns="http://www.w3.org/2000/svg" width="47" height="10" viewBox="0 0 47 10" fill="none">
  <path d="M7.86744 0.787567V9.193H6.33246L2.6756 3.90267H2.61404V9.193H0.836914V0.787567H2.39652L6.02464 6.0738H6.09852V0.787567H7.86744Z" fill="white"/>
  <path d="M12.1758 9.31613C11.5274 9.31613 10.9692 9.18479 10.5013 8.92212C10.0362 8.65672 9.67774 8.28186 9.42601 7.79757C9.17428 7.31053 9.04842 6.73457 9.04842 6.06969C9.04842 5.42123 9.17428 4.85211 9.42601 4.36234C9.67774 3.87257 10.0321 3.49088 10.489 3.21726C10.9487 2.94365 11.4877 2.80684 12.1061 2.80684C12.522 2.80684 12.9091 2.87388 13.2676 3.00795C13.6287 3.13928 13.9434 3.33765 14.2115 3.60306C14.4824 3.86846 14.6931 4.20227 14.8436 4.60449C14.9941 5.00396 15.0693 5.47184 15.0693 6.00813V6.48832H9.74614V5.40481H13.4235C13.4235 5.15308 13.3688 4.93009 13.2593 4.73582C13.1499 4.54156 12.998 4.3897 12.8038 4.28025C12.6122 4.16807 12.3893 4.11198 12.1348 4.11198C11.8694 4.11198 11.6341 4.17354 11.4289 4.29667C11.2264 4.41706 11.0677 4.57986 10.9528 4.78507C10.8379 4.98755 10.779 5.21328 10.7763 5.46227V6.49243C10.7763 6.80435 10.8338 7.07386 10.9487 7.30096C11.0663 7.52806 11.2319 7.70317 11.4453 7.8263C11.6587 7.94942 11.9118 8.01099 12.2046 8.01099C12.3988 8.01099 12.5767 7.98362 12.7381 7.9289C12.8995 7.87418 13.0377 7.79209 13.1526 7.68265C13.2676 7.5732 13.3551 7.43913 13.4153 7.28044L15.0324 7.38714C14.9503 7.77568 14.782 8.11496 14.5275 8.40499C14.2758 8.69229 13.9502 8.91665 13.5507 9.07808C13.154 9.23678 12.6957 9.31613 12.1758 9.31613Z" fill="white"/>
  <path d="M17.5585 2.88893L18.7159 5.09289L19.902 2.88893H21.6956L19.8692 6.04096L21.7448 9.193H19.9595L18.7159 7.01366L17.4928 9.193H15.687L17.5585 6.04096L15.7527 2.88893H17.5585Z" fill="white"/>
  <path d="M25.3565 9.31613C24.7108 9.31613 24.1554 9.17932 23.6902 8.9057C23.2278 8.62935 22.8721 8.24629 22.6231 7.75652C22.3769 7.26675 22.2537 6.70311 22.2537 6.06559C22.2537 5.41986 22.3782 4.85348 22.6272 4.36644C22.8789 3.87667 23.236 3.49498 23.6984 3.22137C24.1608 2.94502 24.7108 2.80684 25.3483 2.80684C25.8983 2.80684 26.3798 2.90671 26.793 3.10645C27.2062 3.30619 27.5331 3.58664 27.7739 3.94781C28.0147 4.30898 28.1474 4.73309 28.172 5.22012H26.5221C26.4756 4.90546 26.3525 4.65237 26.1527 4.46084C25.9557 4.26657 25.6972 4.16944 25.377 4.16944C25.1062 4.16944 24.8695 4.24332 24.667 4.39107C24.4673 4.53608 24.3113 4.74813 24.1991 5.02722C24.0869 5.30631 24.0309 5.64422 24.0309 6.04096C24.0309 6.44318 24.0856 6.78519 24.195 7.06702C24.3072 7.34884 24.4645 7.56363 24.667 7.71138C24.8695 7.85913 25.1062 7.93301 25.377 7.93301C25.5768 7.93301 25.756 7.89196 25.9147 7.80988C26.0761 7.72779 26.2088 7.60877 26.3128 7.45281C26.4195 7.29412 26.4893 7.10395 26.5221 6.88233H28.172C28.1446 7.36389 28.0133 7.78799 27.778 8.15463C27.5454 8.51854 27.2239 8.8031 26.8135 9.00831C26.4031 9.21352 25.9174 9.31613 25.3565 9.31613Z" fill="white"/>
  <path d="M32.1644 9.31613C31.5159 9.31613 30.9577 9.18479 30.4899 8.92212C30.0247 8.65672 29.6663 8.28186 29.4146 7.79757C29.1628 7.31053 29.037 6.73457 29.037 6.06969C29.037 5.42123 29.1628 4.85211 29.4146 4.36234C29.6663 3.87257 30.0206 3.49088 30.4776 3.21726C30.9372 2.94365 31.4762 2.80684 32.0946 2.80684C32.5105 2.80684 32.8977 2.87388 33.2561 3.00795C33.6173 3.13928 33.9319 3.33765 34.2001 3.60306C34.471 3.86846 34.6816 4.20227 34.8321 4.60449C34.9826 5.00396 35.0579 5.47184 35.0579 6.00813V6.48832H29.7347V5.40481H33.4121C33.4121 5.15308 33.3573 4.93009 33.2479 4.73582C33.1385 4.54156 32.9866 4.3897 32.7923 4.28025C32.6008 4.16807 32.3778 4.11198 32.1233 4.11198C31.8579 4.11198 31.6226 4.17354 31.4174 4.29667C31.2149 4.41706 31.0562 4.57986 30.9413 4.78507C30.8264 4.98755 30.7676 5.21328 30.7648 5.46227V6.49243C30.7648 6.80435 30.8223 7.07386 30.9372 7.30096C31.0549 7.52806 31.2204 7.70317 31.4338 7.8263C31.6473 7.94942 31.9003 8.01099 32.1931 8.01099C32.3874 8.01099 32.5652 7.98362 32.7267 7.9289C32.8881 7.87418 33.0263 7.79209 33.1412 7.68265C33.2561 7.5732 33.3437 7.43913 33.4039 7.28044L35.0209 7.38714C34.9388 7.77568 34.7706 8.11496 34.5161 8.40499C34.2644 8.69229 33.9388 8.91665 33.5393 9.07808C33.1426 9.23678 32.6843 9.31613 32.1644 9.31613Z" fill="white"/>
  <path d="M37.9472 5.54846V9.193H36.1988V2.88893H37.8651V4.00117H37.939C38.0786 3.63452 38.3125 3.34449 38.6408 3.13107C38.9692 2.91492 39.3673 2.80684 39.8352 2.80684C40.2729 2.80684 40.6546 2.90261 40.9802 3.09414C41.3058 3.28567 41.5589 3.55928 41.7395 3.91498C41.9201 4.26794 42.0104 4.68931 42.0104 5.17908V9.193H40.262V5.491C40.2647 5.1052 40.1662 4.80423 39.9665 4.58807C39.7668 4.36918 39.4918 4.25973 39.1416 4.25973C38.9062 4.25973 38.6983 4.31035 38.5177 4.41159C38.3399 4.51283 38.2003 4.66058 38.0991 4.85484C38.0006 5.04637 37.95 5.27758 37.9472 5.54846Z" fill="white"/>
  <path d="M46.7415 2.88893V4.20227H42.9451V2.88893H46.7415ZM43.807 1.37857H45.5554V7.25581C45.5554 7.41724 45.58 7.54311 45.6293 7.6334C45.6785 7.72095 45.7469 7.78252 45.8345 7.81809C45.9248 7.85366 46.0288 7.87144 46.1464 7.87144C46.2285 7.87144 46.3106 7.8646 46.3927 7.85092C46.4748 7.8345 46.5377 7.82219 46.5815 7.81398L46.8564 9.11502C46.7689 9.14238 46.6458 9.17385 46.4871 9.20942C46.3284 9.24772 46.1355 9.27098 45.9084 9.27919C45.487 9.29561 45.1176 9.23951 44.8002 9.11091C44.4856 8.98232 44.2407 8.78258 44.0656 8.5117C43.8905 8.24082 43.8043 7.8988 43.807 7.48565V1.37857Z" fill="white"/>
</svg>