<svg width="148" height="146" viewBox="0 0 148 146" fill="none" xmlns="http://www.w3.org/2000/svg">
<path d="M125.734 145.313C125.734 145.361 101.773 145.402 72.2253 145.402C42.6779 145.402 18.7065 145.361 18.7065 145.313C18.7065 145.264 42.6641 145.223 72.2253 145.223C101.787 145.223 125.734 145.268 125.734 145.313Z" fill="#263238"/>
<path d="M102.387 103.07C97.0559 99.3472 95.8482 92.4357 96.0587 86.2211C96.0932 85.1859 95.9793 84.0887 96.4728 83.1811C96.9662 82.2736 98.1187 81.6491 99.0469 82.0839C99.8164 82.4462 100.151 83.3433 100.582 84.0852C101.158 85.0733 102.001 85.8784 103.015 86.4075C103.674 86.7525 104.492 86.9596 105.144 86.6007C106.041 86.1073 106.145 84.8754 106.138 83.8402C106.138 81.9148 106.126 79.9916 106.103 78.0708C106.041 77.0394 106.146 76.0047 106.414 75.0067C106.735 74.0267 107.449 73.1192 108.426 72.8432C109.402 72.5671 110.62 73.1365 110.841 74.144C110.879 74.5708 110.889 74.9996 110.872 75.4277C110.9 75.859 111.1 76.3317 111.504 76.4628C111.907 76.594 112.328 76.2937 112.639 75.9901C113.702 74.9549 114.426 73.6057 115.099 72.2738C115.772 70.9419 116.431 69.572 117.397 68.4367C118.363 67.3015 119.699 66.4009 121.193 66.3146C122.687 66.2284 124.243 67.1462 124.616 68.5955C124.989 70.0447 124.143 71.525 123.236 72.7017C121.866 74.4483 120.252 75.9881 118.443 77.2737C118.09 77.4665 117.808 77.7678 117.639 78.1329C117.414 78.823 118.067 79.5132 118.746 79.7305C119.516 79.9859 120.351 79.9065 121.162 80.0031C121.973 80.0998 122.835 80.4517 123.142 81.2108C123.563 82.2667 122.68 83.3709 121.814 84.0956C120.075 85.5448 118.1 86.6851 115.976 87.4668C115.216 87.7428 114.419 87.9878 113.805 88.5192C113.191 89.0506 112.825 89.9788 113.194 90.7069C113.564 91.435 114.512 91.6662 115.31 91.5178C116.107 91.3694 116.814 90.9415 117.573 90.6551C118.991 90.1203 120.82 90.2169 121.714 91.4419C121.991 91.8639 122.166 92.3443 122.226 92.8454C122.286 93.3465 122.229 93.8547 122.059 94.33C121.714 95.276 121.182 96.1431 120.496 96.88C118.236 99.5802 115.299 101.632 111.987 102.825C108.698 103.964 105.651 104.275 102.384 103.077" fill="#4CAF4F"/>
<path d="M123.097 67.1669C123.097 67.1669 123.066 67.2014 122.997 67.2635L122.69 67.5361C122.421 67.7777 122.024 68.1296 121.524 68.5955C120.105 69.9126 118.788 71.3349 117.583 72.8501C116.814 73.8059 116.017 74.8894 115.168 76.066C114.319 77.2427 113.443 78.5125 112.573 79.8617C111.646 81.2844 110.797 82.7566 110.03 84.2716C109.63 85.0617 109.278 85.8864 108.916 86.7284L107.846 89.2991C106.436 92.5371 105.208 95.8514 104.167 99.2264C103.33 101.988 102.752 104.822 102.442 107.691C102.242 109.627 102.209 111.577 102.346 113.519C102.401 114.209 102.453 114.737 102.501 115.096C102.522 115.268 102.535 115.406 102.549 115.506V115.648C102.534 115.603 102.524 115.557 102.518 115.51C102.501 115.41 102.48 115.275 102.453 115.103C102.39 114.758 102.325 114.212 102.263 113.522C102.096 111.577 102.108 109.62 102.297 107.677C102.588 104.796 103.153 101.949 103.985 99.1747C105.016 95.7902 106.241 92.4675 107.653 89.2232L108.75 86.6628C109.112 85.8243 109.468 84.9927 109.871 84.1991C110.644 82.6795 111.5 81.2039 112.435 79.7789C113.318 78.3986 114.209 77.1495 115.047 75.9832C115.886 74.8169 116.697 73.7265 117.463 72.7742C118.68 71.2629 120.015 69.8507 121.455 68.5506C121.966 68.0917 122.373 67.7466 122.649 67.5154L122.97 67.2566C123.009 67.2224 123.052 67.1923 123.097 67.1669Z" fill="#263238"/>
<path d="M109.916 84.1922C109.868 84.0501 109.834 83.9032 109.816 83.754C109.761 83.4676 109.699 83.0639 109.626 82.5394C109.478 81.5042 109.326 80.086 109.164 78.516C109.002 76.946 108.819 75.5243 108.667 74.4995C108.588 73.9888 108.519 73.5782 108.47 73.2918C108.433 73.1452 108.413 72.9946 108.412 72.8432C108.471 72.9814 108.514 73.1262 108.539 73.2745C108.615 73.5575 108.702 73.9646 108.798 74.4788C108.995 75.514 109.188 76.9218 109.35 78.4953C109.512 80.0688 109.651 81.449 109.757 82.5221C109.809 83.0052 109.854 83.4158 109.889 83.7436C109.915 83.8916 109.925 84.0421 109.916 84.1922Z" fill="#263238"/>
<path d="M123.194 81.7147C123.026 81.7512 122.855 81.772 122.683 81.7768C122.338 81.8078 121.848 81.8492 121.241 81.9182C120.026 82.0494 118.356 82.2909 116.524 82.636C114.692 82.981 113.046 83.3709 111.862 83.6711C111.272 83.823 110.796 83.961 110.482 84.0542C110.314 84.1137 110.141 84.1554 109.964 84.1784C110.124 84.0982 110.29 84.0324 110.461 83.9817C110.786 83.8678 111.255 83.7091 111.842 83.54C113.018 83.195 114.664 82.7843 116.503 82.4324C118.061 82.1345 119.633 81.9157 121.213 81.7768C121.824 81.725 122.318 81.7043 122.663 81.6974C122.84 81.6853 123.018 81.6911 123.194 81.7147Z" fill="#263238"/>
<path d="M104.154 98.9332C104.117 98.8832 104.087 98.8287 104.064 98.771L103.836 98.2913C103.64 97.8738 103.374 97.2562 103.056 96.5005C102.415 94.9822 101.597 92.8567 100.727 90.4964C99.8577 88.1362 99.0572 86.0107 98.4499 84.4752C98.1531 83.7298 97.9081 83.1191 97.7253 82.6636L97.532 82.1702C97.5052 82.1133 97.4866 82.0528 97.4768 81.9907C97.5136 82.0407 97.5437 82.0952 97.5665 82.1529L97.7943 82.6325C97.9875 83.0501 98.2566 83.6677 98.5741 84.4234C99.2159 85.9417 100.034 88.0672 100.903 90.4274C101.773 92.7877 102.573 94.9132 103.181 96.4487C103.477 97.1941 103.722 97.8048 103.902 98.2603C103.981 98.457 104.047 98.6054 104.099 98.7537C104.125 98.8106 104.144 98.871 104.154 98.9332Z" fill="#263238"/>
<path d="M121.779 93.25C121.724 93.2817 121.665 93.3061 121.603 93.3225L121.093 93.495L119.205 94.1058C117.611 94.6233 115.41 95.3618 112.994 96.1761C110.579 96.9905 108.367 97.7151 106.762 98.1982C105.962 98.4432 105.31 98.6295 104.858 98.7537L104.337 98.8883C104.276 98.9075 104.214 98.9203 104.15 98.9262C104.206 98.8945 104.265 98.8702 104.326 98.8538L104.837 98.6812L106.724 98.0705C108.319 97.5529 110.52 96.8145 112.935 96.0001C115.351 95.1858 117.559 94.4612 119.164 93.9781C119.968 93.7331 120.617 93.5468 121.072 93.4225L121.593 93.288C121.654 93.2687 121.716 93.256 121.779 93.25Z" fill="#263238"/>
<path d="M114.588 9.54886L112.811 10.1838L112.049 7.86152C110.648 3.57932 106.183 1.30538 102.08 2.75118C97.9772 4.19698 95.7929 8.89325 97.1939 13.1754L97.9565 15.4977L96.1725 16.1361C95.4923 16.3999 94.9398 16.9158 94.6301 17.5764C94.3203 18.237 94.2771 18.9916 94.5093 19.6833L99.454 34.7934C99.5567 35.1359 99.7271 35.4541 99.9552 35.7294C100.183 36.0046 100.464 36.2312 100.782 36.3957C101.099 36.5602 101.446 36.6592 101.803 36.6869C102.159 36.7145 102.517 36.6702 102.856 36.5567L121.272 29.9695C121.961 29.7061 122.522 29.1857 122.835 28.5177C123.148 27.8497 123.191 27.0862 122.953 26.3878L118.004 11.2776C117.899 10.9362 117.726 10.6194 117.496 10.3463C117.265 10.0732 116.982 9.84925 116.663 9.6879C116.345 9.52656 115.997 9.4311 115.64 9.40721C115.284 9.38332 114.926 9.43149 114.588 9.54886ZM100.551 11.9643C100.174 10.8508 100.241 9.63443 100.741 8.56988C101.24 7.50532 102.131 6.67524 103.229 6.25354C103.771 6.06811 104.345 5.99376 104.916 6.0349C105.487 6.07605 106.044 6.23186 106.554 6.49303C107.064 6.75421 107.516 7.11539 107.883 7.55504C108.25 7.99469 108.525 8.50379 108.691 9.05197L109.45 11.3742L101.31 14.2865L100.551 11.9643ZM110.903 25.3733L112.166 29.2311C112.189 29.3084 112.182 29.3917 112.145 29.4637C112.108 29.5357 112.046 29.5908 111.969 29.6175L110.199 30.249C110.129 30.2685 110.053 30.26 109.989 30.2253C109.925 30.1906 109.876 30.1323 109.854 30.0627L108.581 26.2222C107.879 26.1839 107.205 25.9321 106.65 25.5004C106.095 25.0687 105.685 24.4778 105.475 23.8067C105.175 22.9196 105.23 21.9507 105.628 21.103C106.026 20.2552 106.737 19.5944 107.611 19.2588C108.043 19.1113 108.5 19.0523 108.955 19.0851C109.41 19.118 109.854 19.2421 110.26 19.4501C110.666 19.6582 111.026 19.9458 111.318 20.2959C111.611 20.646 111.83 21.0514 111.962 21.4879C112.184 22.1696 112.203 22.9013 112.015 23.5932C111.828 24.2852 111.442 24.9074 110.907 25.3837L110.903 25.3733Z" fill="#4CAF4F"/>
<path d="M112.732 10.1423C112.732 10.1906 109.437 11.4294 105.337 12.9028C101.238 14.3762 97.8944 15.5598 97.8771 15.5253C97.8599 15.4908 101.172 14.2417 105.275 12.7648C109.378 11.2879 112.715 10.0975 112.732 10.1423Z" fill="#263238"/>
<path d="M116.645 10.7773C116.66 10.8072 116.673 10.8384 116.683 10.8704C116.71 10.9395 116.742 11.0292 116.783 11.1396C116.873 11.3915 116.997 11.74 117.152 12.1748L118.477 16.0325C119.029 17.6681 119.688 19.6074 120.42 21.7605C120.765 22.8406 121.172 23.9655 121.552 25.149C121.755 25.7589 121.843 26.4014 121.81 27.0434C121.781 27.3773 121.686 27.7022 121.531 27.9992C121.365 28.2953 121.144 28.5566 120.879 28.7687C120.346 29.1579 119.754 29.4595 119.126 29.6624L117.349 30.3008L113.985 31.505L108.288 33.534L104.44 34.8866L103.405 35.2317L103.129 35.3214C103.099 35.3345 103.068 35.3427 103.036 35.3455C103.036 35.3455 103.063 35.3456 103.122 35.3041L103.391 35.1972L104.426 34.8073L108.253 33.3994L113.94 31.3291L117.297 30.1144L119.074 29.4726C119.684 29.278 120.259 28.9855 120.775 28.6065C121.022 28.4097 121.228 28.1672 121.383 27.8923C121.529 27.6175 121.617 27.3157 121.641 27.0054C121.673 26.3868 121.589 25.7677 121.393 25.1801C121.02 24.0069 120.627 22.8716 120.272 21.7916C119.554 19.635 118.891 17.6888 118.367 16.0532C117.842 14.4177 117.401 13.103 117.097 12.1782C116.952 11.7262 116.842 11.3742 116.752 11.1189L116.669 10.8428C116.659 10.8219 116.651 10.8 116.645 10.7773Z" fill="#263238"/>
<path d="M106.928 6.0189C106.928 6.0189 106.745 5.92918 106.407 5.79116C105.925 5.60595 105.415 5.5033 104.899 5.4875C104.134 5.46127 103.373 5.60505 102.67 5.90848C101.815 6.28631 101.085 6.89744 100.562 7.67173C100.035 8.44381 99.7526 9.35622 99.7507 10.2907C99.7579 11.0567 99.8741 11.8177 100.096 12.5509C100.275 13.1789 100.462 13.6792 100.586 14.0277C100.659 14.2048 100.719 14.387 100.765 14.5729C100.667 14.4074 100.585 14.233 100.52 14.0519C100.379 13.7068 100.175 13.2168 99.975 12.5854C99.7294 11.8445 99.5956 11.0711 99.5782 10.2907C99.569 9.32092 99.8581 8.37171 100.406 7.57167C100.948 6.76909 101.708 6.13906 102.597 5.75665C103.322 5.45156 104.107 5.31698 104.892 5.36328C105.419 5.39016 105.937 5.51293 106.421 5.72559C106.55 5.78521 106.675 5.85441 106.793 5.93263C106.843 5.95419 106.888 5.9833 106.928 6.0189Z" fill="#263238"/>
<path d="M107.087 19.5211C107.142 19.4877 107.2 19.4589 107.259 19.4348C107.432 19.3569 107.611 19.2934 107.794 19.2451C108.085 19.1592 108.385 19.1083 108.688 19.0932C109.1 19.0711 109.512 19.1333 109.899 19.2761C110.782 19.5867 111.593 20.4873 111.994 21.6915C112.185 22.3378 112.185 23.0259 111.994 23.6722C111.781 24.3736 111.399 25.0122 110.882 25.5321L110.903 25.4389C111.362 26.6984 111.862 28.0648 112.38 29.4899L112.411 29.5762L112.325 29.6072L111.535 29.8695L109.809 30.4457L109.723 30.4733L109.695 30.387C109.223 28.9585 108.705 27.6266 108.315 26.3188L108.391 26.3774C107.717 26.3214 107.073 26.0682 106.542 25.6494C106.06 25.2788 105.666 24.8078 105.386 24.2691C105.133 23.7914 105.007 23.2567 105.02 22.7164C105.036 22.1641 105.174 21.6222 105.424 21.1294C105.674 20.6367 106.029 20.2053 106.466 19.8662C106.645 19.7204 106.847 19.604 107.063 19.5211C106.868 19.6368 106.679 19.7623 106.497 19.8972C106.018 20.3026 105.65 20.8242 105.43 21.412C105.242 21.8553 105.153 22.3349 105.172 22.8163C105.19 23.2978 105.315 23.7692 105.537 24.1967C105.813 24.7149 106.198 25.167 106.666 25.5217C107.173 25.9198 107.786 26.1598 108.429 26.2118H108.488L108.505 26.2636C108.885 27.5472 109.406 28.8895 109.885 30.3249L109.771 30.2697L111.497 29.6935L112.283 29.4278L112.228 29.5451C111.714 28.12 111.217 26.7501 110.762 25.4906V25.4389L110.803 25.3975C111.305 24.8992 111.679 24.2872 111.893 23.6135C112.076 22.9953 112.076 22.3373 111.893 21.7191C111.517 20.5597 110.741 19.6798 109.899 19.3693C109.526 19.2256 109.128 19.1587 108.729 19.1726C108.431 19.1794 108.135 19.2199 107.846 19.2934C107.332 19.421 107.09 19.5384 107.087 19.5211Z" fill="#263238"/>
<path d="M96.421 119.154L61.9529 118.995C59.9624 118.984 58.0576 118.183 56.6569 116.769C55.2562 115.355 54.4741 113.442 54.4824 111.452L54.8481 25.0455C54.8522 24.0593 55.0506 23.0836 55.4319 22.1742C55.8133 21.2647 56.3702 20.4394 57.0707 19.7453C57.7712 19.0511 58.6017 18.5019 59.5146 18.1289C60.4275 17.7559 61.405 17.5665 62.3911 17.5715L96.8557 17.7302C98.8462 17.7403 100.751 18.5399 102.153 19.9536C103.554 21.3672 104.337 23.2793 104.33 25.2698L103.964 111.673C103.96 112.659 103.762 113.635 103.38 114.545C102.999 115.455 102.442 116.281 101.742 116.975C101.041 117.67 100.211 118.22 99.298 118.594C98.3851 118.968 97.4074 119.158 96.421 119.154Z" fill="#455A64"/>
<path d="M96.804 20.7012H90.1236C89.9057 20.7053 89.6906 20.7522 89.4908 20.8394C89.291 20.9265 89.1103 21.0522 88.959 21.2092C88.8078 21.3662 88.6889 21.5515 88.6093 21.7544C88.5297 21.9574 88.4908 22.174 88.4949 22.392V23.6032C88.4991 23.821 88.4602 24.0374 88.3805 24.2402C88.3008 24.4429 88.1819 24.628 88.0306 24.7847C87.8794 24.9415 87.6986 25.0668 87.4988 25.1536C87.299 25.2404 87.0841 25.2869 86.8663 25.2905L73.8437 25.2318C73.4032 25.2201 72.9853 25.034 72.6818 24.7144C72.3784 24.3948 72.2142 23.9678 72.2254 23.5273V22.3161C72.2365 21.8761 72.0728 21.4497 71.7701 21.1302C71.4674 20.8106 71.0504 20.6241 70.6105 20.6115H68.2606L62.4119 20.5839C61.0207 20.5756 59.683 21.1189 58.6915 22.0948C57.7001 23.0707 57.1358 24.3997 57.1221 25.7908L56.777 110.13C56.7739 110.821 56.9066 111.505 57.1678 112.143C57.429 112.782 57.8134 113.363 58.2992 113.854C58.7849 114.344 59.3625 114.734 59.9989 115.001C60.6353 115.268 61.318 115.407 62.0081 115.41L96.4037 115.569C97.0943 115.572 97.7788 115.439 98.418 115.178C99.0572 114.916 99.6387 114.531 100.129 114.045C100.62 113.559 101.01 112.981 101.277 112.345C101.544 111.708 101.683 111.025 101.687 110.334L102.032 25.9944C102.04 24.5994 101.494 23.2582 100.514 22.2656C99.5333 21.273 98.199 20.7103 96.804 20.7012Z" fill="white"/>
<path d="M92.1767 104.316L66.6009 104.206C66.3352 104.206 66.1212 103.916 66.1247 103.564L66.1523 96.8731C66.1523 96.5281 66.3697 96.2313 66.6354 96.2313L92.2112 96.3486C92.3584 96.3741 92.4902 96.4554 92.5789 96.5756C92.6676 96.6959 92.7065 96.8457 92.6874 96.9939L92.6632 103.678C92.6632 104.033 92.4424 104.32 92.1767 104.316Z" fill="#4CAF4F"/>
<path d="M74.3769 100.236C74.2357 100.236 74.1 100.213 73.9697 100.168C73.8412 100.121 73.7416 100.061 73.6711 99.9885L73.7498 99.8337C73.8167 99.8989 73.9063 99.9541 74.0185 99.9993C74.1326 100.043 74.252 100.064 74.3769 100.064C74.4963 100.064 74.5932 100.05 74.6674 100.021C74.7434 99.9903 74.7986 99.9496 74.833 99.8989C74.8692 99.8482 74.8873 99.7921 74.8873 99.7306C74.8873 99.6564 74.8655 99.5967 74.8221 99.5514C74.7805 99.5062 74.7253 99.4709 74.6565 99.4455C74.5877 99.4184 74.5117 99.3949 74.4285 99.3749C74.3452 99.355 74.262 99.3342 74.1787 99.3125C74.0955 99.289 74.0185 99.2582 73.948 99.2202C73.8792 99.1822 73.8231 99.1324 73.7796 99.0709C73.738 99.0075 73.7172 98.9252 73.7172 98.8238C73.7172 98.7297 73.7416 98.6438 73.7905 98.5659C73.8412 98.4863 73.9181 98.423 74.0213 98.3759C74.1244 98.327 74.2565 98.3026 74.4176 98.3026C74.5244 98.3026 74.6303 98.318 74.7352 98.3488C74.8402 98.3777 74.9307 98.4184 75.0067 98.4709L74.9388 98.6311C74.8574 98.5768 74.7705 98.537 74.6782 98.5117C74.5877 98.4863 74.5 98.4736 74.4149 98.4736C74.3009 98.4736 74.2068 98.489 74.1326 98.5198C74.0584 98.5506 74.0032 98.5922 73.967 98.6447C73.9326 98.6954 73.9154 98.7533 73.9154 98.8184C73.9154 98.8926 73.9362 98.9523 73.9778 98.9976C74.0213 99.0428 74.0774 99.0781 74.1461 99.1035C74.2167 99.1288 74.2936 99.1514 74.3769 99.1713C74.4601 99.1912 74.5425 99.213 74.6239 99.2365C74.7072 99.26 74.7832 99.2908 74.852 99.3288C74.9226 99.365 74.9787 99.4139 75.0203 99.4754C75.0637 99.5369 75.0854 99.6175 75.0854 99.717C75.0854 99.8093 75.0601 99.8953 75.0094 99.9749C74.9588 100.053 74.8809 100.116 74.776 100.165C74.6728 100.212 74.5398 100.236 74.3769 100.236ZM75.5232 100.219V98.3189H75.724V100.219H75.5232ZM76.3424 100.219V98.3189H76.508L77.8192 99.9695H77.7323V98.3189H77.9305V100.219H77.7649L76.4564 98.5687H76.5433V100.219H76.3424ZM79.3842 100.236C79.2394 100.236 79.1055 100.212 78.9824 100.165C78.8611 100.116 78.7553 100.048 78.6648 99.9613C78.5761 99.8745 78.5064 99.7722 78.4557 99.6546C78.4069 99.5369 78.3824 99.4084 78.3824 99.2691C78.3824 99.1297 78.4069 99.0012 78.4557 98.8836C78.5064 98.7659 78.577 98.6637 78.6675 98.5768C78.758 98.4899 78.8639 98.423 78.9851 98.3759C79.1082 98.327 79.2421 98.3026 79.3869 98.3026C79.5317 98.3026 79.6638 98.3252 79.7833 98.3705C79.9045 98.4157 80.0077 98.4845 80.0927 98.5768L79.9679 98.7044C79.8882 98.6248 79.8005 98.5678 79.7045 98.5334C79.6086 98.499 79.5054 98.4818 79.395 98.4818C79.2774 98.4818 79.1688 98.5017 79.0693 98.5415C78.9715 98.5795 78.8856 98.6347 78.8114 98.7071C78.739 98.7777 78.682 98.861 78.6403 98.9569C78.6005 99.051 78.5806 99.1551 78.5806 99.2691C78.5806 99.3813 78.6005 99.4853 78.6403 99.5813C78.682 99.6772 78.739 99.7613 78.8114 99.8337C78.8856 99.9043 78.9715 99.9595 79.0693 99.9993C79.1688 100.037 79.2765 100.056 79.3923 100.056C79.5009 100.056 79.6032 100.04 79.6991 100.007C79.7968 99.9749 79.8864 99.9197 79.9679 99.8419L80.0819 99.9939C79.9914 100.074 79.8855 100.134 79.7643 100.176C79.643 100.216 79.5163 100.236 79.3842 100.236ZM79.8891 99.9695V99.2691H80.0819V99.9939L79.8891 99.9695ZM82.1265 100.236C81.884 100.236 81.6931 100.166 81.5537 100.026C81.4144 99.8871 81.3447 99.6808 81.3447 99.4075V98.3189H81.5456V99.3994C81.5456 99.6238 81.5962 99.7894 81.6976 99.8962C81.7989 100.003 81.9419 100.056 82.1265 100.056C82.3129 100.056 82.4568 100.003 82.5582 99.8962C82.6595 99.7894 82.7102 99.6238 82.7102 99.3994V98.3189H82.9057V99.4075C82.9057 99.6808 82.836 99.8871 82.6966 100.026C82.5591 100.166 82.369 100.236 82.1265 100.236ZM83.511 100.219V98.3189H84.2223C84.3834 98.3189 84.5218 98.3451 84.6377 98.3976C84.7535 98.4483 84.8422 98.5225 84.9037 98.6202C84.9671 98.7162 84.9987 98.8329 84.9987 98.9704C84.9987 99.1044 84.9671 99.2202 84.9037 99.3179C84.8422 99.4139 84.7535 99.4881 84.6377 99.5405C84.5218 99.593 84.3834 99.6193 84.2223 99.6193H83.6223L83.7119 99.5243V100.219H83.511ZM83.7119 99.5405L83.6223 99.4428H84.2169C84.4069 99.4428 84.5508 99.4021 84.6485 99.3207C84.7481 99.2374 84.7978 99.1207 84.7978 98.9704C84.7978 98.8184 84.7481 98.7008 84.6485 98.6175C84.5508 98.5343 84.4069 98.4926 84.2169 98.4926H83.6223L83.7119 98.3976V99.5405Z" fill="#E8E8E3"/>
<path d="M71.7022 45.4938L62.8274 45.4536L62.82 47.0822L71.6949 47.1225L71.7022 45.4938Z" fill="#4CAF4F"/>
<path opacity="0.1" d="M71.7022 45.4938L62.8274 45.4536L62.82 47.0822L71.6949 47.1225L71.7022 45.4938Z" fill="black"/>
<path d="M97.7183 55.4936C97.788 55.4865 97.8564 55.4703 97.9219 55.4453C98.0174 55.4079 98.1004 55.3444 98.1615 55.262C98.2225 55.1796 98.259 55.0817 98.2669 54.9794C98.2669 54.4308 98.2669 53.6303 98.2669 52.602C98.2669 52.0878 98.2669 51.5116 98.2669 50.8767C98.2669 50.7214 98.2669 50.5592 98.2669 50.397C98.2894 50.2397 98.2552 50.0794 98.1703 49.945C98.1228 49.8806 98.061 49.828 97.9898 49.7915C97.9185 49.755 97.8398 49.7355 97.7597 49.7345H97.2214H92.2353L63.3745 49.6276C63.3006 49.6263 63.2275 49.6429 63.1614 49.6759C63.0954 49.709 63.0382 49.7575 62.9949 49.8173C62.9116 49.9523 62.8797 50.1128 62.9052 50.2694C62.9052 50.6144 62.9052 50.9595 62.9052 51.3046C62.9052 51.9947 62.9052 52.6848 62.9052 53.3749C62.9052 53.72 62.9052 54.065 62.9052 54.4101C62.8909 54.5708 62.8909 54.7325 62.9052 54.8932C62.9233 54.9621 62.957 55.0259 63.0037 55.0797C63.0503 55.1336 63.1087 55.176 63.1743 55.2037C63.2423 55.2308 63.3151 55.2437 63.3883 55.2417H65.1446L72.8084 55.2831L85.7827 55.3625L94.5299 55.4315L96.9074 55.4591H97.5251C97.6665 55.4591 97.7356 55.4591 97.7356 55.4591H97.5251H96.9074H94.5299H85.7827L72.8084 55.4177L65.1446 55.3866H63.3883C63.2916 55.3905 63.1952 55.3741 63.1053 55.3383C63.0145 55.2995 62.9337 55.2405 62.8691 55.1658C62.8045 55.091 62.7578 55.0025 62.7327 54.907C62.7127 54.8164 62.7057 54.7235 62.712 54.6309V54.3756C62.712 54.0305 62.712 53.6855 62.712 53.3404C62.712 52.6503 62.712 51.9602 62.712 51.27C62.712 50.925 62.712 50.5799 62.712 50.2349C62.7054 50.143 62.7054 50.0507 62.712 49.9588C62.7249 49.8573 62.7642 49.761 62.8258 49.6793C62.8854 49.596 62.9641 49.5284 63.0555 49.4821C63.1468 49.4358 63.248 49.4123 63.3503 49.4136L92.2111 49.5723L97.1973 49.6069H97.7356C97.8304 49.6069 97.9238 49.6299 98.0079 49.6737C98.092 49.7176 98.1643 49.781 98.2186 49.8587C98.3159 50.0088 98.3552 50.1891 98.3291 50.366C98.3291 50.5282 98.3291 50.6903 98.3291 50.8456C98.3291 51.4736 98.3291 52.0499 98.3291 52.5709C98.3291 53.6061 98.3049 54.3997 98.298 54.9518C98.2896 55.058 98.251 55.1595 98.1868 55.2445C98.1226 55.3295 98.0355 55.3943 97.9357 55.4315C97.8704 55.4719 97.7951 55.4934 97.7183 55.4936Z" fill="#E0E0E0"/>
<path d="M81.7248 51.3597H65.4932V52.8815H81.7248V51.3597Z" fill="#4CAF4F"/>
<path opacity="0.2" d="M81.7248 51.3597H65.4932V52.8815H81.7248V51.3597Z" fill="white"/>
<path d="M71.6417 60.3517L62.7668 60.3114L62.7595 61.9401L71.6343 61.9803L71.6417 60.3517Z" fill="#4CAF4F"/>
<path opacity="0.1" d="M71.6417 60.3517L62.7668 60.3114L62.7595 61.9401L71.6343 61.9803L71.6417 60.3517Z" fill="black"/>
<path d="M97.494 70.3519C97.5637 70.3433 97.6329 70.3306 97.7011 70.3139C97.7975 70.2832 97.8861 70.2323 97.9611 70.1644C98.0361 70.0965 98.0957 70.0134 98.1359 69.9205C98.1902 69.7812 98.2115 69.6312 98.198 69.4823C98.198 69.3167 98.198 69.1373 98.198 68.9371C98.198 68.5369 98.198 68.0814 98.198 67.5569V65.3658C98.2144 65.2071 98.1793 65.0474 98.0979 64.9103C98.0128 64.7696 97.8789 64.6653 97.7218 64.617C97.5499 64.5863 97.3749 64.577 97.2007 64.5894H92.2353L63.4746 64.4824C63.3199 64.4828 63.1706 64.5393 63.0544 64.6415C62.9383 64.7437 62.8632 64.8846 62.8431 65.038C62.8431 65.3658 62.8431 65.7281 62.8431 66.0731C62.8431 66.7633 62.8431 67.4534 62.8431 68.1435C62.8431 68.4886 62.8431 68.8336 62.8431 69.1787C62.8303 69.3399 62.8372 69.5022 62.8638 69.6618C62.9069 69.8017 62.9956 69.9231 63.1157 70.0068C63.2432 70.0877 63.3929 70.1263 63.5436 70.1172H64.0232H65.0205L72.6566 70.1552L85.586 70.2346L94.3022 70.3036L96.6728 70.3312H94.3022H85.586L72.6497 70.3174L65.0136 70.2898H63.5125C63.3259 70.3008 63.1407 70.2512 62.9846 70.1483C62.8276 70.0395 62.713 69.8798 62.6602 69.6963C62.6293 69.5209 62.62 69.3425 62.6326 69.1649C62.6326 68.8198 62.6326 68.4747 62.6326 68.1297C62.6326 67.4396 62.6326 66.7494 62.6326 66.0593C62.6326 65.7143 62.6326 65.3692 62.6326 65.0241C62.6578 64.8268 62.754 64.6455 62.9033 64.514C63.0526 64.3825 63.2446 64.31 63.4435 64.3099L92.2043 64.4686L97.1697 64.5066C97.3546 64.4952 97.5402 64.508 97.7218 64.5445C97.9011 64.6031 98.0523 64.726 98.1462 64.8896C98.2355 65.0416 98.2741 65.218 98.2566 65.3934C98.2566 65.5555 98.2566 65.7143 98.2566 65.873C98.2566 66.4976 98.2566 67.0704 98.2566 67.5983C98.2566 68.1262 98.2566 68.5714 98.2566 68.9785C98.2566 69.1752 98.2566 69.3581 98.2566 69.5272C98.2692 69.6815 98.2443 69.8365 98.1842 69.9792C98.1394 70.0744 98.0746 70.1588 97.9942 70.2267C97.9138 70.2946 97.8197 70.3444 97.7183 70.3726C97.6429 70.3788 97.567 70.3718 97.494 70.3519Z" fill="#E0E0E0"/>
<path d="M71.5748 75.8547L62.7 75.8145L62.6926 77.4431L71.5674 77.4834L71.5748 75.8547Z" fill="#4CAF4F"/>
<path opacity="0.1" d="M71.5748 75.8547L62.7 75.8145L62.6926 77.4431L71.5674 77.4834L71.5748 75.8547Z" fill="black"/>
<path d="M97.425 85.8485C97.4948 85.8403 97.5639 85.8276 97.6321 85.8106C97.728 85.7801 97.8164 85.7295 97.8913 85.6623C97.9663 85.5951 98.0261 85.5127 98.0668 85.4206C98.1209 85.2813 98.1422 85.1313 98.1289 84.9824C98.1289 84.8133 98.1289 84.6374 98.1289 84.4338C98.1289 84.037 98.1289 83.578 98.1289 83.0535V80.8624C98.1454 80.7038 98.1103 80.544 98.0289 80.4069C97.9417 80.2689 97.8085 80.1662 97.6528 80.1171C97.481 80.0852 97.306 80.0747 97.1317 80.086H92.1663L63.4056 79.979C63.2509 79.9794 63.1016 80.0359 62.9854 80.1381C62.8693 80.2403 62.7942 80.3812 62.7741 80.5346C62.7741 80.8796 62.7741 81.2247 62.7741 81.5698C62.7741 82.2599 62.7741 82.95 62.7741 83.6401C62.7741 83.9852 62.7741 84.3302 62.7741 84.6753C62.7613 84.8354 62.7682 84.9965 62.7948 85.1549C62.8361 85.2957 62.9252 85.4177 63.0467 85.5C63.1734 85.5827 63.3237 85.6215 63.4746 85.6104H64.9756L72.6118 85.6518L85.5412 85.7312L94.2574 85.8002L96.6279 85.8278H94.2574H85.5412L72.6118 85.7899L64.9756 85.7588H63.4746C63.2878 85.7714 63.1021 85.7216 62.9466 85.6173C62.7896 85.5086 62.675 85.3489 62.6223 85.1653C62.5914 84.99 62.5821 84.8115 62.5947 84.6339C62.5947 84.2888 62.5947 83.9438 62.5947 83.5987C62.5947 82.9086 62.5947 82.2185 62.5947 81.5284C62.5947 81.1833 62.5947 80.8382 62.5947 80.4759C62.6191 80.2789 62.7146 80.0976 62.8633 79.9661C63.012 79.8345 63.2036 79.7618 63.4021 79.7617L92.1629 79.9204L97.1283 79.9583C97.3132 79.947 97.4988 79.9598 97.6804 79.9963C97.8597 80.0549 98.0109 80.1778 98.1048 80.3414C98.1941 80.4933 98.2327 80.6698 98.2152 80.8451C98.2152 81.0073 98.2152 81.1695 98.2152 81.3248C98.2152 81.9493 98.2152 82.5221 98.2152 83.0501C98.2152 83.578 98.2152 84.0231 98.2152 84.4303C98.2152 84.627 98.2152 84.8099 98.2152 84.979C98.2285 85.1333 98.2036 85.2885 98.1428 85.431C98.098 85.5262 98.0332 85.6106 97.9528 85.6785C97.8724 85.7464 97.7783 85.7962 97.6769 85.8244C97.596 85.8521 97.5097 85.8603 97.425 85.8485Z" fill="#E0E0E0"/>
<path d="M81.3783 66.6482L65.1469 66.5746L65.1399 68.0963L81.3714 68.1699L81.3783 66.6482Z" fill="#4CAF4F"/>
<path opacity="0.2" d="M81.3783 66.6482L65.1469 66.5746L65.1399 68.0963L81.3714 68.1699L81.3783 66.6482Z" fill="white"/>
<path d="M66.6147 83.0328C66.6045 83.1716 66.5538 83.3043 66.4689 83.4146C66.3839 83.5248 66.2685 83.6077 66.1369 83.653C66.0053 83.6982 65.8633 83.7039 65.7285 83.6691C65.5937 83.6344 65.4721 83.5609 65.3787 83.4578C65.2853 83.3546 65.2243 83.2262 65.2032 83.0887C65.1821 82.9511 65.2018 82.8104 65.2599 82.6839C65.318 82.5575 65.412 82.4509 65.5302 82.3773C65.6483 82.3038 65.7854 82.2665 65.9246 82.2702C66.1168 82.2809 66.2971 82.367 66.4263 82.5098C66.5555 82.6525 66.6232 82.8404 66.6147 83.0328Z" fill="#4CAF4F"/>
<path d="M68.8126 83.0432C68.8194 83.1404 68.8061 83.2381 68.7735 83.33C68.741 83.4219 68.6899 83.5061 68.6234 83.5775C68.5568 83.6488 68.4764 83.7056 68.3869 83.7445C68.2975 83.7834 68.201 83.8035 68.1035 83.8035C68.006 83.8035 67.9095 83.7834 67.8201 83.7445C67.7307 83.7056 67.6502 83.6488 67.5837 83.5775C67.5172 83.5061 67.4661 83.4219 67.4335 83.33C67.4009 83.2381 67.3876 83.1404 67.3944 83.0432C67.3876 82.9459 67.4009 82.8482 67.4335 82.7563C67.4661 82.6644 67.5172 82.5802 67.5837 82.5089C67.6502 82.4375 67.7307 82.3807 67.8201 82.3418C67.9095 82.3029 68.006 82.2828 68.1035 82.2828C68.201 82.2828 68.2975 82.3029 68.3869 82.3418C68.4764 82.3807 68.5568 82.4375 68.6234 82.5089C68.6899 82.5802 68.741 82.6644 68.7735 82.7563C68.8061 82.8482 68.8194 82.9459 68.8126 83.0432Z" fill="#4CAF4F"/>
<path d="M71.0142 83.0535C71.004 83.1923 70.9533 83.325 70.8684 83.4353C70.7835 83.5455 70.668 83.6284 70.5364 83.6737C70.4048 83.7189 70.2628 83.7245 70.128 83.6898C69.9933 83.6551 69.8716 83.5816 69.7783 83.4784C69.6849 83.3753 69.6238 83.2469 69.6027 83.1094C69.5816 82.9718 69.6013 82.8311 69.6594 82.7046C69.7176 82.5782 69.8115 82.4715 69.9297 82.398C70.0478 82.3245 70.185 82.2872 70.3241 82.2909C70.516 82.3025 70.6958 82.3888 70.8248 82.5314C70.9538 82.6739 71.0218 82.8614 71.0142 83.0535Z" fill="#4CAF4F"/>
<path d="M73.2122 83.0639C73.202 83.2027 73.1513 83.3354 73.0664 83.4457C72.9815 83.5559 72.866 83.6388 72.7344 83.6841C72.6028 83.7293 72.4608 83.7349 72.326 83.7002C72.1913 83.6655 72.0696 83.592 71.9763 83.4888C71.8829 83.3856 71.8218 83.2573 71.8007 83.1197C71.7796 82.9822 71.7993 82.8414 71.8574 82.715C71.9156 82.5885 72.0095 82.4819 72.1277 82.4084C72.2458 82.3348 72.383 82.2976 72.5221 82.3013C72.714 82.3129 72.8938 82.3992 73.0228 82.5417C73.1518 82.6843 73.2198 82.8717 73.2122 83.0639Z" fill="#4CAF4F"/>
<path d="M75.4102 83.0707C75.4007 83.2097 75.3505 83.3429 75.266 83.4536C75.1814 83.5643 75.0662 83.6478 74.9346 83.6935C74.803 83.7393 74.6608 83.7454 74.5258 83.711C74.3908 83.6767 74.2688 83.6034 74.1751 83.5003C74.0814 83.3972 74.02 83.2689 73.9986 83.1312C73.9773 82.9935 73.9968 82.8526 74.0549 82.7259C74.113 82.5993 74.207 82.4925 74.3253 82.4188C74.4435 82.3452 74.5808 82.3079 74.7201 82.3116C74.9114 82.3232 75.0906 82.409 75.2195 82.5508C75.3484 82.6926 75.4169 82.8792 75.4102 83.0707Z" fill="#4CAF4F"/>
<path d="M77.6118 83.0811C77.6024 83.2194 77.5527 83.3519 77.469 83.4623C77.3852 83.5728 77.271 83.6563 77.1404 83.7027C77.0097 83.749 76.8684 83.7562 76.7338 83.7233C76.5991 83.6904 76.477 83.6188 76.3826 83.5174C76.2881 83.416 76.2253 83.2892 76.2019 83.1525C76.1786 83.0159 76.1957 82.8754 76.2511 82.7484C76.3066 82.6214 76.398 82.5133 76.514 82.4376C76.6301 82.3618 76.7658 82.3216 76.9044 82.322C77.0988 82.3292 77.2823 82.4131 77.4149 82.5554C77.5475 82.6977 77.6183 82.8867 77.6118 83.0811Z" fill="#4CAF4F"/>
<path d="M79.8097 83.0915C79.8165 83.1888 79.8032 83.2864 79.7706 83.3783C79.7381 83.4702 79.6869 83.5545 79.6204 83.6258C79.5539 83.6971 79.4734 83.754 79.384 83.7929C79.2946 83.8318 79.1981 83.8518 79.1006 83.8518C79.0031 83.8518 78.9066 83.8318 78.8172 83.7929C78.7277 83.754 78.6473 83.6971 78.5808 83.6258C78.5142 83.5545 78.4631 83.4702 78.4306 83.3783C78.398 83.2864 78.3847 83.1888 78.3915 83.0915C78.3847 82.9942 78.398 82.8966 78.4306 82.8047C78.4631 82.7127 78.5142 82.6285 78.5808 82.5572C78.6473 82.4859 78.7277 82.429 78.8172 82.3901C78.9066 82.3512 79.0031 82.3312 79.1006 82.3312C79.1981 82.3312 79.2946 82.3512 79.384 82.3901C79.4734 82.429 79.5539 82.4859 79.6204 82.5572C79.6869 82.6285 79.7381 82.7127 79.7706 82.8047C79.8032 82.8966 79.8165 82.9942 79.8097 83.0915Z" fill="#4CAF4F"/>
<path d="M82.0078 83.1018C81.9983 83.2401 81.9487 83.3726 81.8649 83.483C81.7812 83.5935 81.667 83.677 81.5363 83.7234C81.4057 83.7697 81.2644 83.7769 81.1298 83.744C80.9951 83.711 80.873 83.6395 80.7785 83.5381C80.6841 83.4366 80.6213 83.3098 80.5979 83.1732C80.5746 83.0366 80.5917 82.8961 80.6471 82.7691C80.7026 82.6421 80.794 82.534 80.91 82.4582C81.0261 82.3825 81.1618 82.3423 81.3004 82.3427C81.4948 82.3498 81.6783 82.4338 81.8109 82.5761C81.9435 82.7184 82.0143 82.9074 82.0078 83.1018Z" fill="#4CAF4F"/>
<path d="M84.2058 83.1122C84.1962 83.2512 84.1461 83.3843 84.0615 83.495C83.9769 83.6058 83.8617 83.6892 83.7301 83.735C83.5985 83.7807 83.4564 83.7868 83.3213 83.7525C83.1863 83.7181 83.0643 83.6448 82.9706 83.5418C82.8769 83.4387 82.8155 83.3103 82.7942 83.1726C82.7728 83.0349 82.7924 82.894 82.8504 82.7674C82.9085 82.6407 83.0025 82.5339 83.1208 82.4602C83.239 82.3866 83.3764 82.3493 83.5156 82.353C83.7069 82.3646 83.8861 82.4505 84.0151 82.5923C84.144 82.7341 84.2124 82.9206 84.2058 83.1122Z" fill="#4CAF4F"/>
<g opacity="0.2">
<path d="M66.6147 83.0328C66.6045 83.1716 66.5538 83.3043 66.4689 83.4146C66.3839 83.5248 66.2685 83.6077 66.1369 83.653C66.0053 83.6982 65.8633 83.7039 65.7285 83.6691C65.5937 83.6344 65.4721 83.5609 65.3787 83.4578C65.2853 83.3546 65.2243 83.2262 65.2032 83.0887C65.1821 82.9511 65.2018 82.8104 65.2599 82.6839C65.318 82.5575 65.412 82.4509 65.5302 82.3773C65.6483 82.3038 65.7854 82.2665 65.9246 82.2702C66.1168 82.2809 66.2971 82.367 66.4263 82.5098C66.5555 82.6525 66.6232 82.8404 66.6147 83.0328Z" fill="white"/>
<path d="M68.8126 83.0432C68.8194 83.1404 68.8061 83.2381 68.7735 83.33C68.741 83.4219 68.6899 83.5061 68.6234 83.5775C68.5568 83.6488 68.4764 83.7056 68.3869 83.7445C68.2975 83.7834 68.201 83.8035 68.1035 83.8035C68.006 83.8035 67.9095 83.7834 67.8201 83.7445C67.7307 83.7056 67.6502 83.6488 67.5837 83.5775C67.5172 83.5061 67.4661 83.4219 67.4335 83.33C67.4009 83.2381 67.3876 83.1404 67.3944 83.0432C67.3876 82.9459 67.4009 82.8482 67.4335 82.7563C67.4661 82.6644 67.5172 82.5802 67.5837 82.5089C67.6502 82.4375 67.7307 82.3807 67.8201 82.3418C67.9095 82.3029 68.006 82.2828 68.1035 82.2828C68.201 82.2828 68.2975 82.3029 68.3869 82.3418C68.4764 82.3807 68.5568 82.4375 68.6234 82.5089C68.6899 82.5802 68.741 82.6644 68.7735 82.7563C68.8061 82.8482 68.8194 82.9459 68.8126 83.0432Z" fill="white"/>
<path d="M71.0142 83.0535C71.004 83.1923 70.9533 83.325 70.8684 83.4353C70.7835 83.5455 70.668 83.6284 70.5364 83.6737C70.4048 83.7189 70.2628 83.7245 70.128 83.6898C69.9933 83.6551 69.8716 83.5816 69.7783 83.4784C69.6849 83.3753 69.6238 83.2469 69.6027 83.1094C69.5816 82.9718 69.6013 82.8311 69.6594 82.7046C69.7176 82.5782 69.8115 82.4715 69.9297 82.398C70.0478 82.3245 70.185 82.2872 70.3241 82.2909C70.516 82.3025 70.6958 82.3888 70.8248 82.5314C70.9538 82.6739 71.0218 82.8614 71.0142 83.0535Z" fill="white"/>
<path d="M73.2122 83.0639C73.202 83.2027 73.1513 83.3354 73.0664 83.4457C72.9815 83.5559 72.866 83.6388 72.7344 83.6841C72.6028 83.7293 72.4608 83.7349 72.326 83.7002C72.1913 83.6655 72.0696 83.592 71.9763 83.4888C71.8829 83.3856 71.8218 83.2573 71.8007 83.1197C71.7796 82.9822 71.7993 82.8414 71.8574 82.715C71.9156 82.5885 72.0095 82.4819 72.1277 82.4084C72.2458 82.3348 72.383 82.2976 72.5221 82.3013C72.714 82.3129 72.8938 82.3992 73.0228 82.5417C73.1518 82.6843 73.2198 82.8717 73.2122 83.0639Z" fill="white"/>
<path d="M75.4102 83.0707C75.4007 83.2097 75.3505 83.3429 75.266 83.4536C75.1814 83.5643 75.0662 83.6478 74.9346 83.6935C74.803 83.7393 74.6608 83.7454 74.5258 83.711C74.3908 83.6767 74.2688 83.6034 74.1751 83.5003C74.0814 83.3972 74.02 83.2689 73.9986 83.1312C73.9773 82.9935 73.9968 82.8526 74.0549 82.7259C74.113 82.5993 74.207 82.4925 74.3253 82.4188C74.4435 82.3452 74.5808 82.3079 74.7201 82.3116C74.9114 82.3232 75.0906 82.409 75.2195 82.5508C75.3484 82.6926 75.4169 82.8792 75.4102 83.0707Z" fill="white"/>
<path d="M77.6117 83.0811C77.6022 83.2194 77.5526 83.3519 77.4688 83.4623C77.3851 83.5728 77.2709 83.6563 77.1402 83.7027C77.0096 83.749 76.8683 83.7562 76.7336 83.7233C76.599 83.6904 76.4769 83.6188 76.3824 83.5174C76.2879 83.416 76.2252 83.2892 76.2018 83.1525C76.1785 83.0159 76.1956 82.8754 76.251 82.7484C76.3065 82.6214 76.3979 82.5133 76.5139 82.4376C76.63 82.3618 76.7657 82.3216 76.9043 82.322C77.0986 82.3292 77.2822 82.4131 77.4148 82.5554C77.5474 82.6977 77.6182 82.8867 77.6117 83.0811Z" fill="white"/>
<path d="M79.8097 83.0914C79.8165 83.1887 79.8032 83.2863 79.7706 83.3783C79.7381 83.4702 79.6869 83.5544 79.6204 83.6257C79.5539 83.6971 79.4734 83.7539 79.384 83.7928C79.2946 83.8317 79.1981 83.8517 79.1006 83.8517C79.0031 83.8517 78.9066 83.8317 78.8172 83.7928C78.7277 83.7539 78.6473 83.6971 78.5808 83.6257C78.5142 83.5544 78.4631 83.4702 78.4306 83.3783C78.398 83.2863 78.3847 83.1887 78.3915 83.0914C78.3847 82.9942 78.398 82.8965 78.4306 82.8046C78.4631 82.7127 78.5142 82.6284 78.5808 82.5571C78.6473 82.4858 78.7277 82.4289 78.8172 82.3901C78.9066 82.3512 79.0031 82.3311 79.1006 82.3311C79.1981 82.3311 79.2946 82.3512 79.384 82.3901C79.4734 82.4289 79.5539 82.4858 79.6204 82.5571C79.6869 82.6284 79.7381 82.7127 79.7706 82.8046C79.8032 82.8965 79.8165 82.9942 79.8097 83.0914Z" fill="white"/>
<path d="M82.0078 83.1018C81.9983 83.2401 81.9487 83.3726 81.8649 83.4831C81.7812 83.5935 81.667 83.6771 81.5363 83.7234C81.4057 83.7698 81.2644 83.7769 81.1298 83.744C80.9951 83.7111 80.873 83.6395 80.7785 83.5381C80.6841 83.4367 80.6213 83.3099 80.5979 83.1733C80.5746 83.0366 80.5917 82.8962 80.6471 82.7691C80.7026 82.6421 80.794 82.5341 80.91 82.4583C81.0261 82.3825 81.1618 82.3424 81.3004 82.3427C81.4948 82.3499 81.6783 82.4338 81.8109 82.5761C81.9435 82.7184 82.0143 82.9075 82.0078 83.1018Z" fill="white"/>
<path d="M84.2058 83.1122C84.1962 83.2512 84.1461 83.3843 84.0615 83.495C83.9769 83.6058 83.8617 83.6892 83.7301 83.735C83.5985 83.7807 83.4564 83.7868 83.3213 83.7525C83.1863 83.7181 83.0643 83.6448 82.9706 83.5418C82.8769 83.4387 82.8155 83.3103 82.7942 83.1726C82.7728 83.0349 82.7924 82.894 82.8504 82.7674C82.9085 82.6407 83.0025 82.5339 83.1208 82.4602C83.239 82.3866 83.3764 82.3493 83.5156 82.353C83.7069 82.3646 83.8861 82.4505 84.0151 82.5923C84.144 82.7341 84.2124 82.9206 84.2058 83.1122Z" fill="white"/>
</g>
<path d="M81.083 33.2993C81.3227 33.1937 81.5261 33.02 81.6678 32.7998C81.8096 32.5795 81.8834 32.3224 81.8801 32.0605C81.8891 31.8903 81.8632 31.72 81.8042 31.5601C81.7452 31.4001 81.6543 31.2538 81.5369 31.1302C81.4196 31.0065 81.2783 30.908 81.1217 30.8407C80.965 30.7734 80.7963 30.7387 80.6258 30.7387C80.4554 30.7387 80.2867 30.7734 80.13 30.8407C79.9734 30.908 79.8321 31.0065 79.7147 31.1302C79.5974 31.2538 79.5064 31.4001 79.4474 31.5601C79.3884 31.72 79.3626 31.8903 79.3716 32.0605C79.3663 32.3251 79.4395 32.5852 79.582 32.8081C79.7245 33.0311 79.9298 33.2068 80.1721 33.3131C78.2397 33.603 78.326 35.7009 78.326 35.7009L82.8946 35.7216C82.8946 35.7216 83.0016 33.5857 81.083 33.2993Z" fill="#4CAF4F"/>
<path opacity="0.1" d="M81.083 33.2993C81.3227 33.1937 81.5261 33.02 81.6678 32.7998C81.8096 32.5795 81.8834 32.3224 81.8801 32.0605C81.8891 31.8903 81.8632 31.72 81.8042 31.5601C81.7452 31.4001 81.6543 31.2538 81.5369 31.1302C81.4196 31.0065 81.2783 30.908 81.1217 30.8407C80.965 30.7734 80.7963 30.7387 80.6258 30.7387C80.4554 30.7387 80.2867 30.7734 80.13 30.8407C79.9734 30.908 79.8321 31.0065 79.7147 31.1302C79.5974 31.2538 79.5064 31.4001 79.4474 31.5601C79.3884 31.72 79.3626 31.8903 79.3716 32.0605C79.3663 32.3251 79.4395 32.5852 79.582 32.8081C79.7245 33.0311 79.9298 33.2068 80.1721 33.3131C78.2397 33.603 78.326 35.7009 78.326 35.7009L82.8946 35.7216C82.8946 35.7216 83.0016 33.5857 81.083 33.2993Z" fill="black"/>
<path d="M88.5068 37.0747L72.2236 37.0009L72.2148 38.947L88.498 39.0209L88.5068 37.0747Z" fill="#4CAF4F"/>
<path opacity="0.2" d="M88.5068 37.0747L72.2236 37.0009L72.2148 38.947L88.498 39.0209L88.5068 37.0747Z" fill="white"/>
<path d="M28.6443 47.1604H28.4821L28.0128 47.1949C27.7589 47.2101 27.5063 47.2436 27.2571 47.2949C27.0957 47.3176 26.9356 47.3487 26.7775 47.3881L26.2427 47.5365C25.3323 47.8158 24.4734 48.2411 23.6996 48.7959C22.6771 49.5381 21.8234 50.4883 21.1944 51.584C20.8248 52.2157 20.5306 52.8885 20.318 53.5888C20.0946 54.3499 19.9659 55.1357 19.935 55.9283C19.9144 56.3447 19.9213 56.762 19.9557 57.1775C19.9557 57.3879 20.0143 57.5984 20.0419 57.8124C20.0652 58.028 20.1055 58.2415 20.1627 58.4507C20.473 59.8354 21.1026 61.1283 22.0012 62.2265C22.8999 63.3246 24.0427 64.1976 25.3386 64.7757C26.2765 65.1804 27.2818 65.4062 28.3027 65.4416C29.3571 65.4996 30.4125 65.3483 31.4082 64.9965L31.7119 64.8826H31.7533L31.7878 64.9033L36.139 67.1117L36.0113 67.2222C35.5455 65.7798 35.0969 64.3823 34.6621 63.04V62.9883L34.7001 62.9503C35.7556 61.8872 36.5392 60.5851 36.9844 59.1546C37.3876 57.8469 37.5053 56.4677 37.3294 55.1105C37.173 53.9044 36.7852 52.7398 36.1873 51.6806C35.6719 50.7708 35.007 49.9543 34.2205 49.2652C33.5716 48.7198 32.8533 48.2627 32.0845 47.9057C31.5028 47.6548 30.8969 47.464 30.2764 47.3363L29.5863 47.2225L29.086 47.1845L28.7823 47.1638H28.6788C28.7132 47.16 28.7479 47.16 28.7823 47.1638H29.0894L29.5897 47.1845L30.2799 47.2846C30.9081 47.4029 31.5222 47.5868 32.1121 47.8332C32.8942 48.186 33.6253 48.6421 34.286 49.1893C35.087 49.8753 35.766 50.692 36.2943 51.6047C36.9092 52.6752 37.3089 53.8556 37.4709 55.0795C37.6613 56.4576 37.5519 57.8607 37.15 59.1926C36.7019 60.6528 35.9062 61.9826 34.8312 63.0676L34.8519 62.9779C35.2867 64.3202 35.7387 65.7177 36.208 67.1566L36.2736 67.3671L36.0769 67.267L31.7257 65.0621H31.8016L31.491 65.1759C30.4762 65.533 29.4012 65.6878 28.3268 65.6314C27.2839 65.5917 26.2576 65.3577 25.3007 64.9413C23.4752 64.1595 21.9564 62.8007 20.9771 61.0732C20.5264 60.2753 20.1972 59.4147 20.0005 58.5197C19.9467 58.3051 19.9063 58.0873 19.8798 57.8676C19.8522 57.6502 19.8073 57.4362 19.7969 57.2223C19.7036 55.9945 19.8333 54.76 20.18 53.5785C20.3979 52.8686 20.7003 52.1874 21.0806 51.5495C21.7245 50.4438 22.596 49.4876 23.6375 48.7442C24.4241 48.188 25.2974 47.7659 26.222 47.4951L26.7637 47.357C26.9232 47.3201 27.0844 47.2913 27.2468 47.2708C27.4986 47.2242 27.7535 47.1965 28.0094 47.188L28.4821 47.1707C28.5359 47.1635 28.59 47.16 28.6443 47.1604Z" fill="#4CAF4F"/>
<path d="M30.6111 55.2072H29.9727L28.5925 53.268V51.9947C28.5925 51.9947 27.6056 51.9326 27.723 53.5992C27.8403 55.2658 27.723 54.8414 27.723 54.8414C27.723 54.8414 25.6284 54.8414 25.4559 55.0312C25.2834 55.221 25.273 57.243 25.2489 58.3714C25.2357 58.6434 25.3137 58.912 25.4706 59.1346C25.6275 59.3571 25.8543 59.5209 26.115 59.5998C26.188 59.62 26.2635 59.6305 26.3393 59.6309C26.8638 59.6309 29.5311 59.2064 29.5311 59.2064H30.6318L30.6111 55.2072Z" fill="#4CAF4F"/>
<path d="M32.4365 54.8655L32.0431 59.2271H30.9528V54.9553L32.4365 54.8655Z" fill="#4CAF4F"/>
<path d="M45.4418 143.66V140.71L40.152 140.672L40.1072 145.133L40.435 145.157C41.8946 145.251 47.8607 145.389 48.8406 145.085C49.931 144.747 45.4418 143.66 45.4418 143.66Z" fill="#4CAF4F"/>
<path d="M48.9649 144.809C48.9649 144.857 46.9843 144.899 44.5447 144.899C42.1052 144.899 40.1245 144.857 40.1245 144.809C40.1245 144.761 42.1052 144.719 44.5447 144.719C46.9843 144.719 48.9649 144.761 48.9649 144.809Z" fill="#263238"/>
<path d="M45.535 144.264C45.4901 144.24 45.535 144.084 45.6419 143.919C45.7489 143.753 45.8938 143.684 45.9283 143.718C45.9629 143.753 45.8904 143.884 45.7869 144.026C45.6834 144.167 45.5798 144.288 45.535 144.264Z" fill="#263238"/>
<path d="M45.8731 144.457C45.8248 144.457 45.849 144.264 45.9525 144.081C46.056 143.898 46.1941 143.787 46.232 143.815C46.27 143.843 46.2079 143.998 46.1112 144.16C46.0146 144.322 45.918 144.474 45.8731 144.457Z" fill="#263238"/>
<path d="M41.7186 144.795C41.6979 144.795 41.6186 144.733 41.5047 144.602C41.3657 144.433 41.2109 144.278 41.0423 144.139C40.8766 144.007 40.6791 143.92 40.4695 143.888C40.3073 143.867 40.2038 143.888 40.1935 143.867C40.1831 143.846 40.2832 143.774 40.473 143.76C40.7234 143.755 40.9678 143.838 41.1631 143.995C41.3461 144.144 41.5005 144.325 41.6186 144.529C41.6979 144.681 41.7393 144.781 41.7186 144.795Z" fill="#263238"/>
<path d="M45.5523 143.708C45.5764 143.75 45.4867 143.853 45.3349 143.908C45.183 143.963 45.0485 143.943 45.0416 143.908C45.0347 143.874 45.1416 143.801 45.2728 143.753C45.4039 143.705 45.5247 143.667 45.5523 143.708Z" fill="#263238"/>
<path d="M45.4694 143.422C45.4694 143.473 45.3314 143.515 45.152 143.518C44.9726 143.522 44.8311 143.48 44.8345 143.432C44.838 143.384 44.9795 143.339 45.152 143.335C45.3245 143.332 45.4625 143.373 45.4694 143.422Z" fill="#263238"/>
<path d="M58.4678 143.66V140.71L53.178 140.672L53.1332 145.088L53.461 145.113C54.9206 145.206 60.8901 145.389 61.8666 145.085C62.957 144.747 58.4678 143.66 58.4678 143.66Z" fill="#4CAF4F"/>
<path d="M61.9909 144.816C61.9909 144.864 60.0137 144.906 57.5707 144.906C55.1277 144.906 53.1539 144.864 53.1539 144.816C53.1539 144.767 55.1311 144.726 57.5707 144.726C60.0103 144.726 61.9909 144.767 61.9909 144.816Z" fill="#263238"/>
<path d="M58.561 144.264C58.5196 144.24 58.561 144.084 58.6679 143.919C58.7749 143.753 58.9198 143.684 58.9543 143.718C58.9888 143.753 58.9164 143.884 58.8129 144.026C58.7093 144.167 58.6058 144.288 58.561 144.264Z" fill="#263238"/>
<path d="M58.8992 144.457C58.8543 144.457 58.8751 144.264 58.982 144.081C59.089 143.898 59.2236 143.787 59.2615 143.815C59.2995 143.843 59.2339 143.998 59.1373 144.16C59.0407 144.322 58.9475 144.474 58.8992 144.457Z" fill="#263238"/>
<path d="M54.7446 144.795C54.7239 144.795 54.648 144.733 54.5307 144.602C54.3917 144.433 54.2369 144.278 54.0683 144.139C53.9026 144.007 53.7051 143.92 53.4955 143.888C53.3368 143.867 53.2298 143.888 53.2195 143.867C53.2091 143.846 53.3092 143.774 53.499 143.76C53.7494 143.755 53.9938 143.838 54.1891 143.995C54.3731 144.143 54.5276 144.324 54.6446 144.529C54.7239 144.681 54.7653 144.781 54.7446 144.795Z" fill="#263238"/>
<path d="M58.5783 143.708C58.6024 143.75 58.5127 143.853 58.3609 143.908C58.209 143.963 58.0745 143.943 58.0676 143.908C58.0607 143.874 58.1676 143.801 58.2988 143.753C58.4299 143.705 58.5507 143.667 58.5783 143.708Z" fill="#263238"/>
<path d="M58.5024 143.422C58.5024 143.473 58.3643 143.515 58.1849 143.518C58.0055 143.522 57.8675 143.48 57.8709 143.432C57.8744 143.384 58.0124 143.339 58.1849 143.335C58.3574 143.332 58.5024 143.373 58.5024 143.422Z" fill="#263238"/>
<path d="M77.9568 56.0491C77.8188 55.9076 77.4772 55.9766 77.4772 55.9766C77.5114 55.778 77.5114 55.5749 77.4772 55.3762C77.4151 55.183 76.9803 55.221 76.9803 55.221C76.9603 55.0583 76.9603 54.8937 76.9803 54.731C76.9838 54.6949 76.976 54.6587 76.9581 54.6272C76.9402 54.5957 76.913 54.5705 76.8802 54.555C76.6745 54.4711 76.4536 54.4312 76.2315 54.4377C75.9658 54.2479 77.0424 52.74 77.4427 52.2569C77.843 51.7738 77.7705 51.3977 77.4151 51.3977C77.1701 51.3977 75.9141 52.847 75.5276 53.3335C75.1411 53.82 74.1163 55.1727 74.0818 54.0926C74.0473 53.0126 73.6125 52.1982 73.3399 52.0602C73.0673 51.9222 72.7775 52.2465 72.9259 52.5467C73.0562 52.8878 73.1375 53.2456 73.1674 53.6095C73.2049 53.8994 73.192 54.1936 73.1294 54.4791C73.015 55.0103 72.8593 55.5318 72.6636 56.0388H72.636C72.636 56.0388 65.1068 63.2609 64.5616 63.775C64.0751 64.2374 54.2892 63.2264 52.3258 63.0193C51.6586 62.9217 50.9849 62.8755 50.3106 62.8813C49.4583 62.9193 49.3065 63.04 48.4577 63.0504C46.3139 63.0742 44.1752 63.2622 42.0602 63.6128C41.1026 63.7756 40.208 64.1983 39.4742 64.8348C38.7403 65.4713 38.1954 66.2971 37.8988 67.2222C35.9216 73.3987 31.4427 88.0189 30.6526 96.2313C30.0555 97.3141 29.5164 98.428 29.0377 99.5681C28.4821 101.079 28.6167 101.131 28.803 101.166C29.3068 101.259 29.8796 98.5467 30.0936 99.2023C30.3075 99.8579 29.0066 102.436 29.5346 102.511C30.2247 102.608 30.7733 99.7509 30.8389 99.5232C30.9045 99.2955 31.2461 99.3679 31.184 99.5819C31.0839 99.8855 30.1143 103.105 30.7906 103.208C31.1633 103.264 31.2047 102.584 31.2047 102.584C31.2047 102.584 31.8948 99.5025 32.2088 99.5646C32.5228 99.6267 32.1881 101.445 32.0294 102.052C31.8706 102.66 32.0915 102.967 32.4158 102.819C32.6367 102.715 33.1646 100.869 33.3095 100.269C33.4545 99.6681 33.8168 98.0049 34.3033 98.9677C34.7898 99.9304 35.5283 100.489 35.8319 100.503C35.9003 100.495 35.9648 100.467 36.0171 100.422C36.0694 100.377 36.107 100.318 36.1252 100.251C36.1434 100.185 36.1413 100.115 36.1191 100.049C36.097 99.9843 36.0559 99.9272 36.001 99.8855C35.7398 99.6305 35.5157 99.3401 35.335 99.0229C35.1741 98.7758 35.0573 98.5026 34.99 98.2154C34.8509 97.643 34.77 97.0581 34.7484 96.4694L34.6932 96.1244C35.4662 92.2976 37.6918 81.066 40.9043 73.8922L42.2224 76.6043L42.7952 78.6126L39.2825 87.2839L54.265 87.0873L52.029 78.4815L54.7446 69.5099C57.6811 69.5755 65.2207 69.6859 66.4767 69.1165C68.0571 68.4264 76.2315 58.1022 76.2315 58.1022C76.7644 57.6882 77.2746 57.2459 77.7601 56.7772C77.7601 56.7772 78.257 56.3597 77.9568 56.0491Z" fill="#FFBE9D"/>
<path d="M38.6235 80.8762C39.0582 79.3924 41.2908 72.0564 41.2908 72.0564C41.2908 72.0564 42.3881 78.0363 42.0982 78.7575C41.8316 79.3749 41.5166 79.9702 41.1562 80.538C38.6235 84.3923 38.9547 86.3212 38.9547 86.3212L54.2581 85.8554C54.2926 83.716 53.0263 78.7402 52.764 77.9466C52.5018 77.153 53.3748 74.5547 53.3748 74.5547C53.3748 74.5547 55.1001 72.7983 55.038 71.8943C55.0052 71.0822 54.9048 70.2742 54.7378 69.4788L64.0544 69.8239L63.7611 63.5093L50.3797 62.1705C49.9138 63.4851 45.7006 62.8399 45.7006 62.8399C41.1528 62.9917 40.8698 63.8268 38.9789 65.2967C37.0879 66.7667 33.9583 79.3821 33.9583 79.3821L38.6235 80.8762Z" fill="#4CAF4F"/>
<path d="M47.671 79.3821C47.4058 79.4295 47.1357 79.4434 46.867 79.4235C46.3666 79.4235 45.68 79.389 44.9243 79.3131C44.1686 79.2371 43.4854 79.1302 42.9989 79.0336C42.7306 78.999 42.4675 78.9318 42.2156 78.8334C42.4854 78.8335 42.7545 78.859 43.0196 78.9093C43.5096 78.9715 44.1893 79.0577 44.9415 79.1336C45.6938 79.2095 46.377 79.2613 46.8704 79.2958C47.1394 79.2992 47.4075 79.3281 47.671 79.3821Z" fill="#263238"/>
<path d="M48.7199 78.0812C48.4546 78.2111 48.1741 78.3074 47.8849 78.3676C46.5082 78.7293 45.0879 78.8977 43.6648 78.8679C43.3703 78.8775 43.0758 78.8497 42.7883 78.7851C43.079 78.7484 43.3719 78.7334 43.6648 78.7402C44.2065 78.723 44.9519 78.685 45.7731 78.5884C46.5943 78.4918 47.3259 78.3538 47.8435 78.2434C48.1309 78.1666 48.424 78.1124 48.7199 78.0812Z" fill="#263238"/>
<path d="M53.8682 72.2773C53.8612 72.5404 53.8253 72.8019 53.7612 73.0571C53.6715 73.5367 53.5334 74.1924 53.3575 74.9101C53.1815 75.6278 53.0124 76.2903 52.8606 76.7389C52.7995 76.9957 52.7092 77.2446 52.5914 77.4808C52.6107 77.2185 52.6593 76.9593 52.7364 76.7079C52.8675 76.1696 53.0159 75.5484 53.1815 74.8687C53.3471 74.1889 53.5058 73.5678 53.637 73.0295C53.6837 72.7704 53.7613 72.5179 53.8682 72.2773Z" fill="#263238"/>
<path d="M38.7856 79.9963C37.9873 79.873 37.1995 79.6896 36.4288 79.4477C35.6414 79.2635 34.8686 79.0213 34.1169 78.723C34.9148 78.8483 35.7025 79.0317 36.4737 79.2717C37.2614 79.4551 38.0341 79.6974 38.7856 79.9963Z" fill="#263238"/>
<path d="M54.9033 69.4029C54.7732 69.4253 54.6401 69.4253 54.5099 69.4029C54.1495 69.366 53.7956 69.2813 53.4575 69.151C52.893 68.9389 52.3792 68.6111 51.9489 68.1886C51.5187 67.766 51.1816 67.2582 50.9593 66.6977C50.7136 66.081 50.6086 65.4173 50.6522 64.755C50.6676 64.2087 50.8309 63.6768 51.1249 63.216C51.3317 62.9056 51.6405 62.6773 51.9979 62.5707C52.0934 62.5444 52.1921 62.5316 52.2912 62.5328C52.3602 62.5328 52.3947 62.5328 52.3947 62.5328C52.3947 62.5328 52.2498 62.5328 52.0186 62.626C51.6907 62.7471 51.4126 62.9742 51.2284 63.2712C50.7591 64.0096 50.628 65.3588 51.1284 66.6183C51.3612 67.2121 51.7258 67.7454 52.1946 68.178C52.5787 68.5319 53.0212 68.8168 53.5024 69.0199C53.954 69.1984 54.4237 69.3268 54.9033 69.4029Z" fill="#263238"/>
<path d="M62.9468 69.6997C62.8604 68.6416 62.8328 67.5795 62.8639 66.5183C62.8369 65.458 62.8692 64.397 62.9606 63.3403C63.0469 64.3973 63.0746 65.4582 63.0434 66.5183C63.0724 67.5797 63.0401 68.642 62.9468 69.6997Z" fill="#263238"/>
<path d="M50.2899 62.5569C50.3278 61.7874 50.4072 60.9179 50.4072 60.9179C50.4072 60.9179 52.3119 60.7074 52.4258 58.7406C52.5397 56.7737 52.4258 52.2362 52.4258 52.2362L48.9752 50.4695L45.145 53.4819L45.7351 63.3161L49.2478 63.5403C49.5163 63.5478 49.7768 63.4484 49.9721 63.2641C50.1675 63.0797 50.2817 62.8254 50.2899 62.5569Z" fill="#FFBE9D"/>
<path d="M50.6315 57.1844C50.6315 57.1844 50.6315 57.2224 50.6005 57.2672C50.5748 57.2998 50.5416 57.3256 50.5037 57.3424C50.4658 57.3592 50.4244 57.3666 50.3831 57.3638C50.1622 57.3638 49.9483 57.1085 49.8724 56.8117C49.8363 56.6679 49.8363 56.5174 49.8724 56.3735C49.8795 56.3107 49.9021 56.2507 49.9383 56.1989C49.9744 56.1471 50.0229 56.1051 50.0794 56.0768C50.1258 56.0576 50.1779 56.0576 50.2244 56.0768C50.2588 56.0938 50.2866 56.1217 50.3037 56.1561C50.3279 56.2148 50.3037 56.2527 50.3037 56.2493C50.3037 56.2458 50.3037 56.2148 50.2692 56.1803C50.2512 56.1556 50.2247 56.1384 50.1947 56.132C50.1648 56.1256 50.1336 56.1305 50.107 56.1458C50.0647 56.1714 50.0295 56.2072 50.0048 56.2501C49.9801 56.2929 49.9666 56.3413 49.9656 56.3908C49.9365 56.5191 49.9365 56.6523 49.9656 56.7807C50.0346 57.0498 50.2209 57.2672 50.3865 57.2879C50.4189 57.2923 50.4519 57.29 50.4834 57.2811C50.5148 57.2722 50.5441 57.2569 50.5694 57.2362C50.6108 57.2086 50.6246 57.1809 50.6315 57.1844Z" fill="#EB996E"/>
<path d="M53.6094 51.1734C53.3437 50.2694 52.381 49.8208 51.5046 49.5724C50.1692 49.1928 48.7268 49.0272 47.4225 49.5068C46.1182 49.9864 44.5516 50.8284 44.5516 52.2673C43.7821 52.2052 43.3405 52.878 43.0368 53.7131C42.8427 54.2218 42.7263 54.7569 42.6917 55.3004C42.5951 57.1844 42.0672 59.7861 40.8457 61.1664C40.1556 61.9359 39.1997 62.4673 38.8064 63.4265C38.4613 64.2581 38.6407 65.245 38.3198 66.0869C38.0334 66.8288 37.402 67.3567 36.9396 68.002C36.4685 68.734 36.1913 69.5738 36.134 70.4424C36.0766 71.3109 36.241 72.1798 36.6118 72.9674C36.9852 73.7348 37.5109 74.4181 38.157 74.9758C38.803 75.5334 39.5558 75.9537 40.3695 76.211C41.9813 76.7013 43.7001 76.7181 45.3211 76.2593C46.5377 75.9684 47.6726 75.4057 48.6406 74.6134C49.631 73.8046 50.3113 72.6781 50.566 71.425C50.811 70.0172 50.4176 68.5852 50.1243 67.1842C49.2065 62.7571 49.4687 62.5259 50.6281 58.4162C50.6557 58.3438 50.6695 58.2679 50.6902 58.1954C50.7109 58.1229 50.7213 58.0884 50.7351 58.0332C50.768 57.8708 50.7854 57.7055 50.7869 57.5398C50.6175 57.6028 50.4337 57.6161 50.2571 57.5782C50.0804 57.5403 49.9182 57.4528 49.7896 57.3259C49.6607 57.1906 49.5708 57.0229 49.5295 56.8406C49.4882 56.6584 49.497 56.4683 49.555 56.2907C49.6364 56.0964 49.7577 55.9213 49.9111 55.7769C50.0644 55.6324 50.2464 55.5218 50.4452 55.4522C50.8283 55.2935 51.2389 55.2106 51.615 55.0347C52.4121 54.6551 52.9642 53.8684 53.3403 53.0437C53.6495 52.4721 53.7449 51.809 53.6094 51.1734Z" fill="#263238"/>
<path d="M50.7695 57.2775C50.8424 57.3852 50.9027 57.501 50.949 57.6226C51.0525 57.84 51.1905 58.1471 51.3423 58.5025L51.3699 58.5681H51.2975L50.9524 58.5991C50.7143 58.5991 50.5142 58.644 50.2795 58.6405C50.2591 58.6359 50.2402 58.6262 50.2245 58.6124C50.2088 58.5985 50.1969 58.5809 50.1898 58.5612C50.1796 58.5298 50.1796 58.4959 50.1898 58.4645C50.1978 58.418 50.2082 58.372 50.2209 58.3265L50.283 58.0815C50.3142 57.9181 50.3628 57.7584 50.4279 57.6053C50.4215 57.7719 50.3972 57.9374 50.3555 58.0988L50.3072 58.3438C50.2899 58.4266 50.2588 58.5542 50.3072 58.5439C50.4797 58.5439 50.7247 58.5059 50.9524 58.4921L51.2975 58.4611L51.2526 58.537C51.1042 58.1919 50.98 57.8676 50.9076 57.6433C50.844 57.5287 50.7975 57.4055 50.7695 57.2775Z" fill="#4CAF4F"/>
<path d="M38.9547 86.3212L54.2581 85.8554L60.9177 111.852L59.6928 141.672H51.6011L52.5914 112.487L46.6737 94.3887L47.5846 142.828L39.4067 142.949L38.5475 97.4184C38.5096 96.152 38.0955 93.2983 38.2508 92.0423L38.9547 86.3212Z" fill="#263238"/>
<path d="M48.7095 94.758C48.459 94.7737 48.2076 94.7587 47.9608 94.7131C47.4984 94.6579 46.8669 94.5613 46.1733 94.4233C45.4798 94.2852 44.8587 94.1265 44.4101 93.9988C44.1703 93.9461 43.9383 93.8626 43.72 93.7504C43.72 93.6986 44.8449 93.9678 46.2251 94.2473C47.6053 94.5268 48.7164 94.7062 48.7095 94.758Z" fill="#455A64"/>
<path d="M59.61 140.037C59.61 140.085 57.7778 140.126 55.5176 140.126C53.2575 140.126 51.4218 140.085 51.4218 140.037C51.4218 139.988 53.254 139.947 55.5176 139.947C57.7812 139.947 59.61 139.985 59.61 140.037Z" fill="#455A64"/>
<path d="M47.5122 141.569C47.5122 141.62 45.7317 141.658 43.5371 141.658C41.3425 141.658 39.5654 141.62 39.5654 141.569C39.5654 141.517 41.3459 141.479 43.5371 141.479C45.7282 141.479 47.5122 141.52 47.5122 141.569Z" fill="#455A64"/>
<path d="M46.4563 141.445C46.4079 141.445 46.194 130.862 45.9766 117.808C45.7592 104.754 45.6316 94.1644 45.6764 94.1644C45.7213 94.1644 45.9421 104.744 46.1561 117.804C46.37 130.865 46.508 141.445 46.4563 141.445Z" fill="#455A64"/>
<path d="M58.5231 140.037C58.5193 139.99 58.5193 139.942 58.5231 139.895V139.481C58.5231 139.108 58.5507 138.574 58.5714 137.894C58.6197 136.514 58.6887 134.509 58.775 132.052C58.9613 127.111 59.2236 120.299 59.51 112.78C59.51 112.708 59.51 112.639 59.51 112.577V112.601C57.6984 105.355 56.0594 98.7779 54.8689 94.0195L53.4887 88.3916C53.33 87.7325 53.2092 87.2184 53.1229 86.8595C53.0815 86.6904 53.0539 86.5593 53.0298 86.4592C53.0163 86.4143 53.0082 86.368 53.0056 86.3212C53.0235 86.3647 53.0374 86.4098 53.047 86.4558C53.0746 86.5524 53.1091 86.6835 53.1574 86.8492C53.2506 87.1942 53.3852 87.7187 53.5577 88.3743C53.9028 89.7063 54.3893 91.6248 54.9966 93.9885C56.1974 98.7434 57.8537 105.303 59.6894 112.56V112.584C59.6894 112.646 59.6894 112.718 59.6894 112.787C59.3823 120.306 59.1028 127.114 58.8992 132.055C58.7923 134.516 58.7025 136.507 58.6404 137.894C58.6059 138.584 58.5783 139.108 58.5611 139.481C58.5611 139.657 58.5404 139.795 58.5369 139.895C58.5374 139.943 58.5328 139.99 58.5231 140.037Z" fill="#455A64"/>
<path d="M55.8834 111.97C55.3022 112.161 54.7034 112.294 54.096 112.366C53.3506 112.494 52.7157 112.584 52.4293 112.598V112.529C52.5225 112.556 52.5708 112.573 52.5708 112.587C52.5708 112.601 52.5122 112.587 52.4155 112.587H52.2085L52.4155 112.525C52.6847 112.446 53.3196 112.315 54.0649 112.18C54.6627 112.05 55.2718 111.98 55.8834 111.97Z" fill="#455A64"/>
<path d="M55.7418 112.96C55.2036 112.984 54.6643 112.96 54.1304 112.887C53.5914 112.876 53.0545 112.817 52.5259 112.711C53.6043 112.623 54.6898 112.707 55.7418 112.96Z" fill="#455A64"/>
<path opacity="0.2" d="M38.8892 86.8699C39.0704 87.1026 39.2987 87.2945 39.5591 87.433C39.8195 87.5716 40.1062 87.6536 40.4005 87.6739C41.0169 87.7469 41.6403 87.7353 42.2535 87.6394C46.2044 87.2011 50.39 86.7974 54.2581 85.8554C49.2513 86.1349 43.9615 86.0417 38.9547 86.3212L38.903 86.7491" fill="black"/>
<g opacity="0.2">
<path d="M44.0477 93.9263L46.8703 104.879L46.6736 94.3887L44.0477 93.9263Z" fill="black"/>
</g>
</svg>
