<svg xmlns="http://www.w3.org/2000/svg" width="17" height="17" viewBox="0 0 17 17" fill="none">
  <path d="M2.72529 5.89365V6.06059H2.89222H14.9114H15.0784V5.89365V5.14245C15.0784 4.76613 14.9289 4.40522 14.6628 4.13912C14.3967 3.87302 14.0357 3.72352 13.6594 3.72352H4.14422C3.7679 3.72352 3.40699 3.87302 3.14089 4.13912C2.87479 4.40522 2.72529 4.76613 2.72529 5.14245V5.89365ZM15.0784 6.89525V6.72832H14.9114H2.89222H2.72529V6.89525V11.6529C2.72529 12.0292 2.87479 12.3901 3.14089 12.6562C3.40699 12.9223 3.7679 13.0718 4.14422 13.0718H13.6594C14.0357 13.0718 14.3967 12.9223 14.6628 12.6562C14.9289 12.3901 15.0784 12.0292 15.0784 11.6529V6.89525ZM2.05756 5.14245C2.05756 4.58904 2.2774 4.05828 2.66873 3.66696C3.06005 3.27563 3.59081 3.05579 4.14422 3.05579H13.6594C14.2128 3.05579 14.7436 3.27563 15.1349 3.66696C15.5262 4.05828 15.7461 4.58904 15.7461 5.14245V11.6529C15.7461 12.2063 15.5262 12.737 15.1349 13.1283C14.7436 13.5197 14.2128 13.7395 13.6594 13.7395H4.14422C3.59081 13.7395 3.06005 13.5197 2.66873 13.1283C2.2774 12.737 2.05756 12.2063 2.05756 11.6529V5.14245ZM11.4058 10.067H12.9082C12.9968 10.067 13.0817 10.1022 13.1443 10.1648C13.2069 10.2274 13.2421 10.3123 13.2421 10.4009C13.2421 10.4894 13.2069 10.5743 13.1443 10.6369C13.0817 10.6995 12.9968 10.7347 12.9082 10.7347H11.4058C11.3173 10.7347 11.2324 10.6995 11.1697 10.6369C11.1071 10.5743 11.072 10.4894 11.072 10.4009C11.072 10.3123 11.1071 10.2274 11.1697 10.1648C11.2324 10.1022 11.3173 10.067 11.4058 10.067Z" fill="#4CAF4F" stroke="#4CAF4F" stroke-width="0.333867"/>
</svg>