<svg xmlns="http://www.w3.org/2000/svg" width="11" height="12" viewBox="0 0 11 12" fill="none">
  <path opacity="0.1" fill-rule="evenodd" clip-rule="evenodd" d="M0.13916 5.72719C0.13916 2.77696 2.53079 0.38533 5.48102 0.38533C8.43126 0.38533 10.8229 2.77696 10.8229 5.72719C10.8229 8.67743 8.43126 11.0691 5.48102 11.0691C2.53079 11.0691 0.13916 8.67743 0.13916 5.72719Z" fill="white"/>
  <path fill-rule="evenodd" clip-rule="evenodd" d="M5.321 4.72727L5.33221 4.91211L5.14539 4.88948C4.46534 4.80271 3.87123 4.50848 3.3668 4.01431L3.12019 3.76912L3.05667 3.95018C2.92215 4.35382 3.00809 4.78008 3.28833 5.06677C3.43779 5.22521 3.40417 5.24784 3.14635 5.15353C3.05667 5.12336 2.9782 5.10072 2.97073 5.11204C2.94457 5.13845 3.03425 5.48172 3.10524 5.61752C3.20239 5.80614 3.40043 5.99098 3.61715 6.10037L3.80024 6.18713L3.58352 6.19091C3.37427 6.19091 3.3668 6.19468 3.38922 6.2739C3.46395 6.51909 3.75914 6.77938 4.08795 6.89255L4.31961 6.97176L4.11784 7.09247C3.81892 7.266 3.46769 7.36408 3.11645 7.37162C2.94831 7.37539 2.81006 7.39048 2.81006 7.4018C2.81006 7.43952 3.26591 7.65077 3.53121 7.73376C4.32709 7.97895 5.27243 7.87333 5.98237 7.45461C6.4868 7.1566 6.99123 6.56436 7.22663 5.99098C7.35367 5.68542 7.48071 5.12713 7.48071 4.8593C7.48071 4.68577 7.49192 4.66314 7.70117 4.45567C7.82447 4.33496 7.94031 4.20293 7.96273 4.1652C8.00009 4.09353 7.99635 4.09353 7.80579 4.15766C7.48819 4.27083 7.44335 4.25574 7.60028 4.08599C7.71611 3.96527 7.85437 3.74648 7.85437 3.68235C7.85437 3.67104 7.79832 3.6899 7.7348 3.72385C7.66754 3.76157 7.51808 3.81816 7.40598 3.85211L7.20421 3.91623L7.02112 3.79175C6.92024 3.72385 6.77825 3.6484 6.70352 3.62577C6.51295 3.57296 6.2215 3.5805 6.04962 3.64086C5.58256 3.81061 5.28737 4.24819 5.321 4.72727Z" fill="white"/>
</svg>