<svg xmlns="http://www.w3.org/2000/svg" width="11" height="12" viewBox="0 0 11 12" fill="none">
  <path opacity="0.1" fill-rule="evenodd" clip-rule="evenodd" d="M0.164795 5.72719C0.164795 2.77696 2.55643 0.38533 5.50666 0.38533C8.45689 0.38533 10.8485 2.77696 10.8485 5.72719C10.8485 8.67743 8.45689 11.0691 5.50666 11.0691C2.55643 11.0691 0.164795 8.67743 0.164795 5.72719Z" fill="white"/>
  <path fill-rule="evenodd" clip-rule="evenodd" d="M7.73272 3.89079C7.9779 3.95807 8.17098 4.1563 8.23651 4.40804C8.35558 4.86428 8.35558 5.81624 8.35558 5.81624C8.35558 5.81624 8.35558 6.76816 8.23651 7.22444C8.17098 7.47618 7.9779 7.67441 7.73272 7.74172C7.28841 7.86395 5.50659 7.86395 5.50659 7.86395C5.50659 7.86395 3.72477 7.86395 3.28042 7.74172C3.03525 7.67441 2.84216 7.47618 2.77664 7.22444C2.65759 6.76816 2.65759 5.81624 2.65759 5.81624C2.65759 5.81624 2.65759 4.86428 2.77664 4.40804C2.84216 4.1563 3.03525 3.95807 3.28042 3.89079C3.72477 3.76852 5.50659 3.76852 5.50659 3.76852C5.50659 3.76852 7.28841 3.76852 7.73272 3.89079ZM4.97241 5.01494V6.79556L6.3969 5.90529L4.97241 5.01494Z" fill="white"/>
</svg>